<svg id="Layer_1" data-name="Layer 1" xmlns="http://www.w3.org/2000/svg" viewBox="0 0 2911.2 725.67"><defs><style>.cls-1{fill:#eea844;}.cls-2{fill:#fcf9f2;}.cls-3{fill:#fcf9f3;}.cls-4{fill:#1d2328;}.cls-5{fill:#1a1f23;}.cls-6{fill:#1e2428;}.cls-7{fill:#1b2025;}.cls-8{fill:#1c2125;}.cls-9{fill:#202527;}.cls-10{fill:#1d2226;}.cls-11{fill:#1e2327;}.cls-12{fill:#1f2428;}.cls-13{fill:#191e23;}.cls-14{fill:#1c2024;}.cls-15{fill:#1f2328;}.cls-16{fill:#1e2328;}.cls-17{fill:#1d2327;}.cls-18{fill:#1b1f21;}.cls-19{fill:#1b2125;}.cls-20{fill:#1c2226;}.cls-21{fill:#1c2126;}.cls-22{fill:#181d20;}.cls-23{fill:#f9d666;}.cls-24{fill:#f8d155;}.cls-25{fill:#fbf9f2;}.cls-26{fill:#d8d6cf;}.cls-27{fill:#c3c6c5;}.cls-28{fill:#c3c5c5;}.cls-29{fill:#c1c5c4;}.cls-30{fill:#fcfcfc;}.cls-31{fill:#fcfcfb;}.cls-32{fill:#f8da4b;}.cls-33{fill:#c2c5c4;}.cls-34{fill:#c2c6c5;}.cls-35{fill:#c3c6c6;}.cls-36{fill:#eda844;}.cls-37{fill:#f6ed9d;}.cls-38{fill:#263055;}.cls-39{fill:#eda843;}.cls-40{fill:#2c2f64;}.cls-41{fill:#c4c7c6;}.cls-42{fill:#fff;}</style></defs><title>Fulllogo_dark</title><path class="cls-1" d="M330.43,34c.12.35.24.71.37,1.07,3,4.32,1.24,9.23,1.68,13.87a25.77,25.77,0,0,1-.26,5.88c.59,21.32.12,42.65.26,64,0,3.5.15,7-.1,10.5-.37,5.31-2.19,7.05-7.47,7.37-.33,0-.66,0-1,0-10.41.18-10.41.18-10.42,10.5,0,7.5.11,15-.05,22.49-.14,6.35-1.18,7.28-7.32,7.16-12-.22-12-.22-12.68,11.42-.34,5.82-1.71,7.17-7.67,7.45-2.66.12-5.33.08-8,.1-2.94,0-4.19,1.41-4.23,4.29s.05,6-.21,9c-.33,3.93-2.39,6-6.37,6.31-3,.2-6,.38-9,.38-3.2,0-4.5,1.53-4.45,4.61,0,2.17,0,4.34-.07,6.5-.26,6.05-1.41,7.34-7.31,7.81a79.24,79.24,0,0,1-8,.72c-3.83-.09-4.77,1.84-4.73,5.28q.17,13,0,26c-.08,7.73-1.28,8.88-9.09,9-11.73.21-10.83-1.4-10.87,11.22,0,12.33-.06,24.66,0,37,0,5.62.41,5.92,6,6.09,13,.41,13,.41,13,13.22,0,7.17.09,14.33,0,21.5-.07,3.85,1.43,5.51,5.3,5.3,2.49-.14,5-.06,7.5,0,6.69.23,8,1.57,8.2,8.46.06,2,0,4,.17,6,.12,1.4.46,2.8,2,3.08a35.72,35.72,0,0,0,11.94,0c1.83-.28,2-2,2.1-3.52.19-3.17.16-6.34.09-9.5-.44-19.32.71-38.62.74-57.93,0-3.59,1.73-5.15,5-5.47a64.26,64.26,0,0,1,9-.17c4.22.18,5.69-1.79,5.36-5.76a49.41,49.41,0,0,1-.06-7c.31-5.57,1.66-6.89,7.35-7.2,2.5-.13,5-.08,7.5-.13,2.67-.05,3.94-1.24,4-3.95s0-5.66.16-8.49c.16-4,2-6.21,6.12-6.36,3.83-.15,7.66-.2,11.49,0,3.53.2,5.66,2,5.78,5.57.36,10.66.32,21.33,0,32-.11,3.82-2.29,5.67-6.06,5.87-2.83.15-5.66.12-8.49.15s-4.19,1.41-4.21,4.29c-.11,15.17-.08,30.33,0,45.49,0,3.21,1.53,4.47,4.61,4.45,2.49,0,5-.07,7.49.12,5,.38,6.49,1.74,6.73,6.79.32,7,.07,14,.12,21,0,1.83.12,3.67,0,5.5-.23,4.05,1.57,5.69,5.62,5.62,12.33-.21,24.66,0,37,0,3,0,6-.05,9,.11,4,.21,6.08,2.07,6,6.29-.1,4.49-.08,9,.14,13.49a3.09,3.09,0,0,1-1,1.59c-2.52,1.28-5.23.79-7.87.8-42.64.08-85.28-.08-127.92.1a3.23,3.23,0,0,1-1.83-.58l.08.09c-2-2.14-1.65-4.84-1.84-7.44-.26-3.55.81-7.23-1-10.62-1.74-1.67-3.93-1.53-6.09-1.53-8,0-15.93,0-23.89,0-6.85,0-7.57-.81-7.64-7.85,0-1.82,0-3.65,0-5.47,0-6.66-1-7.63-7.9-7.66-2.49,0-5-.06-7.46,0-4,.06-5.66-1.89-5.64-5.81,0-8.13,0-16.26,0-24.39,0-2.16.13-4.34-1.42-6.13-3.07-2.3-6.62-1-9.94-1.33-2.7-.26-5.63.37-7.69-2.18-1.62-2.18-1.38-4.74-1.39-7.22q0-41.43,0-82.87c0-2.48-.19-5,1.43-7.2,3-3.15,6.84-2,10.37-2.08,8.54-.19,8.82-.14,8.12-8.77-.6-7.32-1-14.62-.83-22,0-2.34.07-4.69,1.85-6.55l-.1.1c4.63-3.32,9.92-1.37,14.9-1.85a18,18,0,0,1,4.43.44c-1.19-6.12-2.67-12.33.91-18.53a.94.94,0,0,1,.63-.26c3.09-2.29,6.68-1.45,10.09-1.52,7.32-.15,7.24-.09,7.41-7.57.08-3.56-.76-7.35,2-10.43a4.48,4.48,0,0,1,.87-.3c3.48-2.92,7.65-1.6,11.52-1.77,6.25-.26,6.28-.28,6.54-6.5.18-4.05-1.13-8.38,1.77-12.05,2.16-1.64,4.69-1.52,7.18-1.54,8.48-.05,17-.12,25.45,0,4.11.07,5.57-1.57,5.52-5.59q-.18-12.72,0-25.45c.1-7.48,1.42-8.81,8.68-9,12.15-.26,11.25,1.68,11.28-11.8,0-19.13,0-38.26,0-57.38,0-8.6,1.2-9.8,9.85-9.77C323.25,33.17,327,32.05,330.43,34Z"/><path class="cls-2" d="M350.64,667.91l-.17-20c2.93.13,2.56,2.54,2.82,4.32a46.91,46.91,0,0,1,.17,7.95c-.08,3.26,1.12,4.74,4.6,4.91,9.36.45,9.64.31,9.77-9.31.12-8.56,1.21-9.74,9.89-9.66,4.06,0,8.35-1.06,12.06,1.68q67.73,0,135.43.17c3,0,3.61-1,3.47-3.68-.21-4.15.15-8.34-.12-12.49-.2-3,.94-3.54,3.64-3.4,4.32.21,8.66-.13,13,.06,2.48.11,3.5-.31,3.49-3.15q-.15-46.23,0-92.45c0-2.47-.77-3.11-3.12-3-4.49.17-9-.14-13.48.11-2.94.17-3.66-.89-3.51-3.64.22-4-.25-8,.15-12s-1.09-4.53-4.68-4.52c-42.64.13-85.29.08-127.94.07-7.49,0-15,.12-22.48-.06-2.84-.07-4,.33-3.89,3.65.17,5.06,2.26,11.9-.84,14.73-2.75,2.5-9.5.9-14.46.6-3.83-.24-5.29.79-4.89,4.81s0,8,.18,12c.14,2.45-.28,3.54-3.11,3.36-5.12-.33-11.89,1.69-15-.87s-1-9.67-.93-14.76c.18-14.15.61-28.3.94-42.45a1.12,1.12,0,0,1,.35-1.56c3.11-1.67,6.38-1.06,9.64-.7,6.24,1.38,7.47.46,7.53-5.76,0-3,0-5.95,0-8.93,0-1.83.1-3.68,1.88-4.85,2.49-1.28,5.19-1.08,7.83-1.09q90,0,180.08,0c2.94,0,6-.46,8.52,1.86l1.09,1.08c2.75,3.32,1.59,7.29,1.75,11,.25,5.85.35,5.93,6.29,6.21,3.69.17,7.67-1.1,11,1.75l1,.88c2.56,3.55,1.92,7.67,1.82,11.6s1,5.66,5.3,5.73c12.76.22,12.76.38,12.76,13.39q0,57.42,0,114.83c0,2,.06,4-.06,6-.34,5.58-1.74,7-7.28,7.35-10.42.7-10.42.7-10.67,11.22-.06,2.5,0,5-1.91,7l.12-.12c-3.45,3-7.62,1.7-11.51,1.84-6.54.25-6.53.24-6.77,6.78-.15,3.88,1.1,8.05-1.85,11.51l.14-.13a6.72,6.72,0,0,1-6.06,1.58c-5.13-.83-10.29-.57-15.45-.57q-73.39,0-146.8,0c-3.12,0-6.36.52-9.25-1.25-3.62-5.49-1.69-11.44-1.34-17.26a1.41,1.41,0,0,1,1.34-1.25c1,0,1.36.86,1.63,1.63,1,2.91.68,5.94.69,8.92,0,3.17,1.43,4.32,4.53,4.52,9.3.61,12-2.53,9.73-11.66-.37-1.49-1-2.51-2.58-2.54-5.26-.07-10.5-.66-15.77-.73-6.32.47-12.72,2.09-18.74-1.36Z"/><path class="cls-3" d="M290.67,489.82c.05,5.33.21,10.66.12,16,0,2.56.07,3.89,3.43,3.51,4.61-.51,9.32,0,14-.16,2.5-.09,3.58.5,3.49,3.27-.2,5.81-.06,11.62-.06,17.44-19.67.5-39.05-.91-58.45-1-.7,0-1.29-.12-1.35-1,3.16-2.77,7-1.55,10.54-1.69,6.27-.25,6.5-.35,6.6-6.45,0-1.33,0-2.66,0-4,0-.83.15-2-.51-2.35-3.59-1.85-7.44-.62-11.18-.7-2.13,0-2.61,1.55-3,3.3-.34,1.49-.11,3.51-2.44,3.77-.59-3.41,1.45-8-1-10-2-1.59-6.38-.13-9.7-.14q-61.69,0-123.37-.17c-3.19,0-4.31.59-4.07,4,.31,4.31-.2,8.67,0,13,.16,3-.94,3.61-3.65,3.47-4.32-.2-8.66,0-13-.08-2.3-.07-3.53.15-3.52,3.11q.14,46.2-.09,92.4c0,2.56.53,3.47,3.28,3.3,4.64-.28,9.34.16,14-.23,3.15-.27,3.56.82,3.38,3.54-.26,4,.17,8-.2,12-.33,3.62,1,4.19,4.34,4.18,39.63-.1,79.25,0,118.88-.09,4.88,0,9.79,1.5,14.65-.15.39-2.6,2.14-2.27,4.09-2.12,8.94.72,17.92.13,26.87.37,4,.1,5.39-1.74,5.13-5.43,0-.66,0-1.33,0-2,0-6.85-.17-7.05-6.87-7.08s-13.62.11-20.42-.07c-3-.08-5.83,1-8.78,1.24-.54-2.73-.13-4.11,3.36-4,10.49.25,21,.17,31.48,0,2.84,0,4.17.13,4.08,3.65-.27,11.49-.11,23-.11,34.48a1.2,1.2,0,0,0,0,.93c-3.3,2.81-7.29,1.65-11,1.81-5.88.25-5.94.35-6.23,6.29-.2,4,1.21,8.37-1.86,12l.14-.14a5.55,5.55,0,0,1-3.74,1.1c-49.44,1.61-98.9.65-148.36.85a10.15,10.15,0,0,1-5.78-1.23c-3.06-3.57-1.74-7.9-1.89-11.92-.26-6.76-.2-6.83-7.07-6.9-3.8,0-7.61.17-11.42-.23a102.81,102.81,0,0,1-13.82.21,7,7,0,0,1-5-1.85l.1.1c-3.2-6.09-2.36-12.33-.69-18.59,3-1.28,2.77,1.33,3.08,2.78.62,2.94.27,6,.35,9,.08,2.65,1.24,3.77,3.92,4q14.39,1.5,10.35-12.87c-.68-2.43-2.43-2.53-4.24-2.52a77,77,0,0,1-13.31-.93c-6.59,1.15-13.19,2.36-19.55-1l.09.1a1.06,1.06,0,0,1,.19-1.52c3.86-2.16,8.08-1,12.14-1.25,5.36-.28,5.68-.49,5.85-5.59.32-9.88.31-9.82-9.44-10-3.21,0-6.67.77-9.42-1.84-1.62-2.76-1.24-5.82-1.24-8.79q0-46.49,0-93c0-1.66,0-3.33,0-5,0-9.15,0-9.1-9-9.25-2.94-.05-6.05.55-8.62-1.61,3.86-2.8,8.27-1.2,12.31-1.05,5.13.19,6.43-1.42,6.33-6.42-.28-13.72,0-13.91,13.79-13.65,4.68.09,6.45-1.08,6.2-6-.2-4-1.17-8.22.84-12.13,2.8,3.31,1.57,7.3,1.74,11,.26,5.93.35,6.24,6.24,6.23,9.94,0,9.23,1.7,9.34-9.26,0-2.76-.51-5.72,1.81-8L95,470.7c2-1.93,4.62-1.63,7.08-1.7,53.4-1.67,106.82-.85,160.23-1,3,0,6-.28,8.75,1.36a5.22,5.22,0,0,1,1.29,1.32c1.52,3.09,1,6.43,1.05,9.69.1,7.74.06,7.7,8,7.8,2.92,0,5.94-.48,8.7,1Z"/><path class="cls-4" d="M271.71,470.93a10.07,10.07,0,0,0-4.85-.71q-84.45.11-168.91.24c-1,0-2,.16-3,.24-2.33-2.95-.64-6.3-.82-9.44-.19-3.43.36-6.9.58-10.35,1.72-1,3.59-.49,5.37-.49,46.86-.11,93.72.13,140.58-.14a7.87,7.87,0,0,1,2.93.43c8.36.52,8.37.52,8.23-7.89-.07-4-.16-8-.23-12a1.76,1.76,0,0,0,1-.16,9.41,9.41,0,0,1,3.46-.3H386.15a10.08,10.08,0,0,1,3.46.27c1.12,5.09.41,10.25.45,15.37,0,2.81,1,4,3.78,3.84.66,0-.17,0,.5,0q71.45,0,142.9,0c3.8,0,7.7-1.73,11.36.66-1.22,6.4-.47,12.9-1.07,19.32l-196.86,0c-2.82-3.75-.91-8.09-1.5-12.11-.07-1.61.3-3.34-1.16-4.61a7.12,7.12,0,0,0-3.87-.72H297.33a12.39,12.39,0,0,0-4.4.68c-4.8.62-9.63.29-14.44.28-3.78,0-5.52,1.61-5.39,5.41.11,3,0,6,0,9A3.93,3.93,0,0,1,271.71,470.93Z"/><path class="cls-5" d="M330.43,34c-5,.26-9.92.71-14.88.71-3.09,0-4.15.7-4.12,4.12.22,23.44.06,46.88.29,70.32,0,4-1.08,5.18-4.93,4.86s-7.66.15-11.46-.1c-3.06-.2-3.94.74-3.88,3.86.19,10.8-.08,21.62.11,32.42.06,3.14-.91,3.9-3.92,3.85-12-.2-23.93-.14-35.9-.18-.56-.31-.63-.7-.2-1.17-1-5.45-.15-10.95-.45-16.42-.11-2.2,1.07-2.37,2.77-2.35,4.5.06,9-.1,13.49.09,2.51.11,3.41-.47,3.44-3.22.14-11,.76-22,.81-33,0-3.45,1.12-4.12,4.21-3.92,4.15.26,8.36-.26,12.48.17,3.74.39,3.41-1.66,3.41-4.08q-.06-35.49,0-71c0-6.19,0-6.33,6.46-5.81a277.16,277.16,0,0,0,29,.7c2.86-.07,3.69.79,3.55,3.6C330.4,23,330.49,28.53,330.43,34Z"/><path class="cls-6" d="M370.71,686.68c19.92,1.14,39.86.3,59.8.4,37.73.18,75.47.21,113.2.33,1.65,0,3.31.24,5,.36-.09,5.15-.44,10.3-.18,15.43.17,3.16-.75,3.78-3.77,3.77-25.94-.13-51.88-.07-77.82-.07-30.77,0-61.53-.1-92.29,0-3.56,0-4.79-.55-4.54-4.46a59.52,59.52,0,0,0-.43-14.78.79.79,0,0,1-.24-.71c.06-.25.12-.37.19-.37A.93.93,0,0,1,370.71,686.68Z"/><path class="cls-4" d="M113.75,687.61q45.34,0,90.71,0c20.27,0,40.54-.22,60.81-.29,2.14,0,4.29.3,6.43.46,0,4.6-.32,9.22,0,13.8.27,4.16-.52,6.67-5.4,5.73a5.27,5.27,0,0,0-1.88.39c-1.29,1.17-2.87.64-4.31.64q-76.93,0-153.87,0c-1.44,0-3,.49-4.33-.59a5.6,5.6,0,0,0-1.92-.36c-4.42.79-5.41-1-5.46-5.36-.05-4.71-.94-9.44-.75-14.22l.68-.66C100.91,685.63,107.37,685,113.75,687.61Z"/><path class="cls-6" d="M568.54,667.89c-.14-6-.14-11.95-.5-17.9-.16-2.56,1.31-2.14,2.73-2.15,4,0,8-.19,12,0,2.93.18,3.94-.48,3.93-3.72q-.18-65.34,0-130.67c0-2.85-.82-3.55-3.6-3.56-4.95,0-11.77,2.18-14.32-.87s-.53-9.48-.48-14.44c0-1.29.22-2.58.33-3.87,5.16,0,10.33.22,15.48,0,2.91-.12,3.67.88,3.52,3.64-.23,4.15.07,8.33-.11,12.49-.1,2.39.63,3.21,3.06,3.09,3.82-.19,7.68.21,11.48-.13s4.68.7,4.67,4.54c-.17,38.3-.1,76.61-.1,114.91,0,5.17-.13,10.33,0,15.49.08,2.41-.67,3.16-3.08,3.06-4.32-.19-8.66.06-13-.13-2.39-.1-3.2.62-3.11,3,.17,4.66-.08,9.33.09,14,.08,2.35-.54,3.19-3,3.12C579.2,667.71,573.87,667.87,568.54,667.89Z"/><path class="cls-7" d="M389.62,115c5.6-.93,11.27-.39,16.87-.84,3.31-.27,4.09.68,4.08,4-.12,21.75,0,43.5.08,65.25,0,10.61.05,10.62,10.54,10.61l7.48,0a1.26,1.26,0,0,1,1.63.5c2.07,5.6,1.28,11.35.7,17-.34,3.26-3.05,3.92-5.84,4.2-3.75.37-7.57-.4-11.26.72-2.06,1.48-1.67,3.69-1.84,5.8-.31,4,1.05,8.18-1.15,12a4.58,4.58,0,0,1-1.62.92c-6.74.61-13.52,2-20.06-1-1.1-1.43-1-3.12-1-4.78-.76-35.78-.41-71.56-.44-107.34,0-2.15-.05-4.35,1.15-6.3Z"/><path class="cls-6" d="M54.87,646.9l-.12,1c-5.12,0-10.24,0-15.36-.15-1.56,0-3.37.66-4.5-1.16-1.21-1.27-.65-2.85-.66-4.28q0-64.15,0-128.3c0-1.35-.84-3,.88-4.07l.06.2c5,0,10,.11,15-.07,3.58-.13,4.69,1,4.67,4.85-.19,32.65-.11,65.29-.1,97.93,0,5,.08,10,.12,15A23.77,23.77,0,0,1,54.87,646.9Z"/><path class="cls-8" d="M429.62,194l-.95,0c1.27-12.08.89-24.21.92-36.33,0-3.41.33-5.22,4.43-4.7,5.05.63,11.89-2.06,14.77,1.07,2.52,2.74,1,9.49.68,14.42-.3,4.36.7,6.18,5.47,5.7s9.65-.1,14.48-.1c1.24,1.25.67,2.84.67,4.26q0,37.13,0,74.24a2.88,2.88,0,0,1-1.3,1.39c-5.22,1.57-10.55.94-15.85.61-2.87-.17-4.48-1.93-4.89-4.79a19.42,19.42,0,0,1-.26-3.48c.58-14.66-1.42-29.26-1.09-43.92.15-6.18-.28-6.3-6.52-6.52C436.6,195.65,432.78,196.63,429.62,194Z"/><path class="cls-9" d="M468.56,253l1.17-.08c6.64-.47,13.28-1.22,19.88.37l-.11-.36-.35.11c1.69,1.59.9,3.69.9,5.5q.13,44.43.05,88.86c0,1.12.36,2.36-.66,3.29-5.06,1.19-10.23.67-15.34.66-3.53,0-4.87.74-4.76,4.65.3,10,.11,20,0,30,0,1.54.89,3.32-.71,4.65-2.11-1.92-1.75-4.53-1.78-7-.09-7.44-.08-14.89,0-22.33a24.39,24.39,0,0,0-1.56-9.69c3-6.34,2-13.1,1.77-19.68-.67-24.47-.14-48.93-.25-73.4C466.78,256.5,467.05,254.51,468.56,253Z"/><path class="cls-10" d="M171.68,253q-.08,48.93-.14,97.86a.73.73,0,0,1-1.22.2c-5.47.08-11,0-16.42.32-2.55.16-2.18-1.2-2.17-2.67v-11c0-26.76.09-53.52-.1-80.28,0-3.83,1-4.79,4.66-4.54,4.8.33,9.64.06,14.46,0A.55.55,0,0,1,171.68,253Z"/><path class="cls-11" d="M465.48,351.72c3.1.06,3.17,2.14,3.16,4.48-.05,11.46,0,22.92,0,34.38-5.28.09-10.56.38-15.83.17-2.74-.1-3.35.79-3.26,3.3.16,4.62-.09,9.26.1,13.88.1,2.46-.77,3.06-3.09,3-5.62-.16-11.24-.06-16.87-.06-2.8-6.44-1.53-13-.78-19.61,3.31-3.28,7.53-1.62,11.37-2.09,2.35-.28,5.19.75,6.41-2.46,1.09-7.88.22-15.78.48-23.65.11-3.13-.15-6.26.2-9.38a4.38,4.38,0,0,1,.71-1.73,4,4,0,0,1,1.5-1.08c3.88-.78,7.82-.27,11.73-.4C462.79,350.53,464.34,350.45,465.48,351.72Z"/><path class="cls-12" d="M251.63,410.87l.06,20.08c-12.07-.19-24.14-.48-36.21-.47-2.93,0-4.06-.49-3.85-3.7.33-5.27.15-10.58.18-15.87,6.86-1.15,13.76-.42,20.64-.45C238.84,410.44,245.26,409.84,251.63,410.87Z"/><path class="cls-13" d="M330.73,54.69q0-9.8.07-19.59c5.49,0,11,0,16.47-.14,2-.05,2.54.7,2.5,2.6-.09,4.16.2,8.33,0,12.49-.13,3,.42,4.55,4,4.35a138.73,138.73,0,0,1,14,.38c1,0,2.51-.82,2.55,1.23-.78,6.41.54,12.9-.7,19.3-5.87,2.67-12,1.58-18,.87-2.74-.33-3.44-2.8-3.69-5.23a77.8,77.8,0,0,1-.2-9.41c0-3.37-1.41-4.82-4.76-4.72-2.31.08-4.63,0-6.94-.08C334.08,56.64,332.09,56.48,330.73,54.69Z"/><path class="cls-14" d="M369.62,74.91c.42-6.29-.82-12.65.72-18.9,0,5.14,0,10.28-.14,15.41-.08,2.62.56,3.92,3.57,3.78,3.29-.15,6.67.79,9.9.38,5.11-.64,6.22,1.2,6.05,6.09-.4,11.08-.11,22.19-.1,33.29l0,0c-6.33,2.65-12.68.92-19-.09-2-.32-2.62-2.54-2.69-4.4-.45-10.65-.43-21.3,0-31.95A5.67,5.67,0,0,1,369.62,74.91Z"/><path class="cls-15" d="M429.63,390.93q0,10,0,19.93c-.17,5.14-.72,10.3-.4,15.4.2,3.3-.42,4.13-3.77,4.06-11.11-.23-22.23-.11-33.35-.09a10.7,10.7,0,0,0-1.93.34,1.19,1.19,0,0,1-.67-.89.93.93,0,0,0-.08-.84c-.73-4.78,0-9.61-.37-14.39-.32-3.82,1.48-5,4.92-5,8.63,0,17.26,0,25.89,0,6.19,0,7.11-1.08,7.28-7.25.11-3.61-.74-7.31.81-10.82A1.19,1.19,0,0,1,429.63,390.93Z"/><path class="cls-16" d="M170.32,351l1.22-.2c6.37.94,12.89-.64,19.21,1.14.93,9.52.19,19,.4,28.58.07,3.12,0,6.25.07,9.37-.15.28-.31.56-.47.83-5.32,0-10.66-.16-16,.14-3.23.17-4.24-.66-4.07-4,.52-10.3.72-20.62.94-30.94C171.68,354.24,172.52,352.17,170.32,351Z"/><path class="cls-17" d="M171.68,253l-.93,0c.31-11.81.72-23.63.86-35.45,0-2.83.79-3.68,3.61-3.57,5.16.2,10.32,0,15.49,0,.22,12.06.39,24.11.7,36.17.07,2.65-1.29,2.89-3.38,2.87C182.58,252.86,177.13,252.94,171.68,253Z"/><path class="cls-18" d="M211.16,409.93c-6.28,2-12.74.52-19.11.84-2.11.1-1.27-2-1.28-3.08-.08-5.65,0-11.29,0-16.94l-.06.17c1-1.89,2.77-1.5,4.39-1.51,4.31,0,8.62,0,12.94,0,1.75,0,3.88.16,3.88,2.16C211.91,397.68,213.31,403.89,211.16,409.93Z"/><path class="cls-19" d="M251.54,152.72c.07.39.13.78.2,1.17,0,5.13-.39,10.29,0,15.39.31,4.13-1.25,5-5,4.74-4.95-.31-9.94-.07-14.91-.07-.05-6,0-12-.21-18-.11-2.43.91-2.35,2.81-2.45C240.14,153.24,245.93,154.77,251.54,152.72Z"/><path class="cls-20" d="M210.85,194c.05,5.63,0,11.28.21,16.9.11,2.49-.71,3.09-3,3-5.8-.13-11.6,0-17.41,0,0-5.6.24-11.22,0-16.82-.09-2.71.85-3.31,3.37-3.22C199.63,194.12,205.24,194,210.85,194Z"/><path class="cls-6" d="M548.53,687.9c0-5.78.13-11.56,0-17.33,0-2.18.63-2.83,2.79-2.79,5.78.12,11.56,0,17.33,0-.09,5.62-.32,11.23-.22,16.84,0,2.41-.66,3.14-3.05,3.1C559.78,687.63,554.15,687.82,548.53,687.9Z"/><path class="cls-8" d="M54.66,647.79l19.92.13c.4.12.58.31.52.56s-.15.43-.26.43l-.09,19c-5.6,0-11.2-.17-16.79,0-2.66.09-3.33-.79-3.26-3.33C54.85,659,54.69,653.39,54.66,647.79Z"/><path class="cls-21" d="M231,174.25c0,5.31-.18,10.62,0,15.92.08,2.68-.48,3.9-3.51,3.75-5.31-.27-10.63-.12-16-.15,0-5.47.17-11,.05-16.42-.05-2.32.13-3.61,3.05-3.43C220,174.25,225.51,174.16,231,174.25Z"/><path class="cls-22" d="M271.56,687.89c0-5.6.18-11.2,0-16.79-.07-2.54.6-3.43,3.26-3.32,5.26.2,10.54,0,15.81,0,0,5.78-.08,11.57.22,17.34.12,2.22-.32,2.75-2.47,2.71C282.79,687.75,277.18,687.86,271.56,687.89Z"/><path class="cls-20" d="M74.65,667.78l18.93.13a22.78,22.78,0,0,1,0,20l.13-.12c-5.3.05-10.61-.11-15.9.22-2.88.19-3.2-1-3.16-3.34C74.81,679,74.68,673.41,74.65,667.78Z"/><path class="cls-20" d="M369.75,686.61l-.11,1.09c-5.33,0-10.66-.05-16,.15-2.43.09-3.1-.71-3-3.09.15-5.66,0-11.33,0-17l19,.11C370.6,674.12,370.28,680.36,369.75,686.61Z"/><path class="cls-6" d="M567.61,489.88c-5.33,0-10.66-.1-16,.06-2.37.08-3.17-.6-3.08-3,.18-5.32.07-10.65.08-16L566,470.8c1.2,0,2.4-.05,2.29,1.73C568,478.31,569.15,484.15,567.61,489.88Z"/><path class="cls-10" d="M93.79,470.87c0,5.49-.14,11,0,16.46,0,2.36-.2,3.5-3.16,3.15-5.09-.6-11.85,1.27-14.92-1.36s-.7-9.67-1-14.75c-.06-1.16,0-2.33,0-3.49Z"/><path class="cls-23" d="M390.38,430.83a2.29,2.29,0,0,0-.82.35q-52.31-.12-104.62-.23c-10.78,0-21.57-.16-32.36-.25,1.74-1.48,3.83-.77,5.75-.78q61.62-.06,123.24,0c2.66,0,5.32-.14,8-.21l.67.88Z"/><path class="cls-24" d="M211.16,409.93q.08-8.18.13-16.36c0-1.46.34-3.3-1.92-3.26-6.23.09-12.5-.95-18.68.61l.06-38.95c1.83,2.2.85,4.79.89,7.18.13,8.3.2,16.61,0,24.9-.1,3.6.83,5.2,4.7,4.92s8,0,11.95-.08c3.22-.1,4.49,1.34,4.4,4.49-.12,4,.14,8-.08,11.95-.19,3.41.92,4.69,4.49,4.62,9.79-.21,19.59-.1,29.38,0,1.75,0,3.7-.64,5.18.95l-39.82,0C211.6,410.58,211.38,410.26,211.16,409.93Z"/><path class="cls-4" d="M507.23,613.69c-.53.24-.09.69-.09,1C507.17,614.37,507.19,614,507.23,613.69Z"/><path class="cls-4" d="M550.47,537.71c0-8.32-1.35-9.62-9.52-9.71-11.42-.12-10.31.7-10.47-10.69-.12-7.9-1.43-9.28-9.45-9.29q-71.94-.11-143.88,0c-8,0-9.26,1.36-9.38,9.34-.14,10.17.67,9.54-10,9.64-8.85.08-9.92,1.2-10,10.21-.11,10.2-.58,10.55-10.87,9.74-2.85-.22-4.32-1.24-4.28-4.21.14-12.14-.59-24.29.49-36.43.46-5.27,1.36-10.62-.87-15.75a5.05,5.05,0,0,0-3.8-2.16,268.2,268.2,0,0,0-35.86.14,3.78,3.78,0,0,0-1.79.86c-3.33,4.69-1.76,10-1.72,15,0,4.86,1.66,6.12,6.47,6.25,3.49.09,7-.07,10.49.08,2.43.11,3.63,1.23,3.74,3.69.15,3.33-.05,6.67.14,10,.16,2.81-.94,3.74-3.77,3.75-15.82,0-31.63-.39-47.45-.78a6.13,6.13,0,0,1-4.19-1.32c-1.75-2.17-.68-4.85-1.3-7.22-.21-11,1-10.92-11-10.91q-58.48.07-117,0c-2.33,0-4.66,0-7,.12-4,.2-6.11,2.2-6.34,6.23-.11,2-.12,4-.14,6-.09,7.57-.09,7.57-7.45,7.65-2.16,0-4.32,0-6.49.15-3.79.26-5.72,2.27-5.93,6-.09,1.67-.12,3.33-.12,5q0,40,0,80c0,1.84,0,3.67.15,5.5.25,3.8,2.29,5.7,6,6,3.33.24,6.66.18,10,.14,2.78,0,3.9,1.17,3.84,3.9a83,83,0,0,0,.18,8.49c.33,4.16,2.39,6.4,6.66,6.52,2,.05,4,.1,6,.1,26,0,52-.1,78,0,14.82.08,29.65-.67,44.46.52,2,.16,4-.11,5.32-2,1.86-4.81.64-9.88,1.31-14.8.6-3.05,3-3.15,5.36-3.15,8.28,0,16.57.12,24.85-.06,3.88-.08,5.28,1.47,5.31,5.28.06,8.12-.57,16.22-.35,24.34.06,2.44-.34,5,1.75,7,1.53,1.49,3.45.91,5.22.91q27.39.11,54.78.12c2.7-6.54,1.58-13.21.66-19.88-2.87-2.76-6.49-1.83-9.83-1.88-9-.15-9-.07-9.14-8.74-.59-8.1-.59-8.1,7.27-8.11,6.77,0,13.56.82,20.27.68,7.22-.16,14.45.71,21.71-.36,5.91-.88,6.45.14,6.66,6,.14,4.09-.93,8.3.91,12.25a4.13,4.13,0,0,0,1.39,1,17.13,17.13,0,0,0,6.4.78q61.95,0,123.9,0c8.27,0,9.57-1.36,9.64-9.59.09-11-.42-9.2,9.42-9.41,8.89-.19,10.55-1.77,10.57-10.57Q550.57,578.92,550.47,537.71ZM227.92,549.39c-4.15-.11-8.33.21-12.47-.1-3.87-.28-5,1.37-4.81,4.92.17,2.65,0,5.33,0,8,0,6.15,0,6.15-5.95,6.16-3.83,0-7.66,0-11.48,0-.9,0-2.07-.44-2.48,1l0,39.28c5,1.65,10.14.57,15.2.67,3.09.05,4.6.65,4.31,4.12a81.43,81.43,0,0,0,0,10.48c.11,2.52-.67,3.53-3.36,3.52q-34.69-.14-69.39,0c-2.76,0-3.3-1.13-3.31-3.57,0-4.64.45-9.3-.29-13.93,0-1.94-1.35-1.82-2.74-1.76-4.82.19-9.66.13-14.46.54-2.53.22-3.07-.5-3.05-2.89.08-17.64.11-35.29,0-52.93,0-2.86,1.09-3.2,3.48-3.13,5.49.17,11,.09,16.47.11,1.35-5,1.25-10.14,1.13-15.24-.07-3.23,1.17-4.29,4.43-4.28q44.17.15,88.36,0c2.72,0,3.92.66,3.77,3.61a95.62,95.62,0,0,0,0,12C231.45,548.63,230.49,549.46,227.92,549.39Zm300.2,55.48c0,2.72-.77,3.37-3.32,3.26-4.32-.2-8.68.15-13-.12-2.79-.18-3.32.87-3.27,3.36.11,5.16-.06,10.32-.12,15.48a3.27,3.27,0,0,1-1.28-1.68,3.87,3.87,0,0,1-.74,1.17c-2.62,2.78-7.86.94-11.95,1-19.78.11-39.57,0-59.35.13-3.87,0-5.47-.92-5-5s-1.67-9.47.8-12.08c2.71-2.88,8.18-.64,12.43-1,2.09-.19,4.3.64,6.28-.64,0-12-.1-24,.06-36,0-2.93-.49-4.13-3.76-3.93-5.26.33-10.56.15-15.85.17,0,0,0,.06,0,.08l-.13-.08H430c-1.07-5.24-.42-10.54-.42-15.81,0-2.62-.74-3.37-3.35-3.34-10.67.11-21.33-.13-32,0-3.49.06-5.22-.52-4.72-4.54.62-5.05-2.11-11.9,1.11-14.77,2.82-2.51,9.5-.75,14.48-.75,32.66,0,65.32.1,98-.14,4.75,0,5.94,1.41,5.5,5.76-.35,3.47.12,7-.13,10.49-.21,2.95.47,4.19,3.74,3.94,4.14-.31,8.33,0,12.49-.11,2.28-.06,3.44.14,3.41,3.11C527.94,570.21,528,587.55,528.12,604.87Z"/><path class="cls-25" d="M190.76,569.33c3.63-3.14,7.93-1.13,11.88-1.34,7-.38,7-.11,7.06-7,.14-14-1.89-11.91,12.21-12.1,10.07-.14,8.77,1.28,8.74-8.71,0-10.82,1.46-9.23-9.18-9.26-26.78-.07-53.56.08-80.34-.12-4.46,0-5.89,1.24-5.55,5.62.35,4.57,0,9.18-2.06,13.44.07-5.66.26-11.31.13-17-.05-2.44.72-3,3.08-3q45.95.1,91.87,0c2.33,0,3.16.55,3.14,3a142.12,142.12,0,0,0,.56,14.45c.25,2.55-.9,2.61-2.77,2.59-5.15-.07-10.32,0-15.47-.06-2.16-.05-2.82.55-2.68,2.82.26,4.31.23,8.65.08,13-.1,2.61.77,3.38,3.39,3.34,11.32-.14,22.64-.07,34-.07H423.56c2.16,0,4.32.12,6.49.19l-.13-.09c-1.9,4.74-.58,9.69-1,14.52-.17,2.12-.2,4.24-.3,6.35-3.89,1.38-7.91.58-11.87.7-3.15.1-4.59,1.43-4.43,4.55,0,.5,0,1,0,1.5-.16,8.26,2.73,10.44,10.85,8.38a3.09,3.09,0,0,0,2.6-3.11c.21-2.16,0-4.34.25-6.47.24-1.82-.18-4.15,2.62-4.54.07,4.49-.06,9,.3,13.47.25,3.15-.79,3.75-3.81,3.75-36.81,0-73.61.14-110.42.24-20.82,0-41.64.13-62.46.1-12.32,0-24.64-.38-37-.26-3.61,0-3.9-1.49-3.86-4.37.15-10.32,0-20.65.18-31,.06-3.08-.83-4.11-3.95-3.93C202.06,569.24,196.4,569.21,190.76,569.33Z"/><path class="cls-26" d="M271.71,470.93c0-1,.09-2.07.13-3.11.71-4,.29-8,.27-11.93,0-2.5.66-3.5,3.35-3.55,23.44-.44,46.89-.51,70.34-.47,2.94,0,4.18.95,3.9,4.07a83.08,83.08,0,0,0-.05,9.47c.11,3.44-1.63,4.66-4.83,4.93-3.76.31-7.64-.9-11.25.87-.82,4.12.07,8.26-.19,12.38-.15,2.31,0,4.67-1.77,6.53a.69.69,0,0,1,.05.73c-5.19-1.42-10.48-.52-15.72-.67-8.42-.25-16.85-.26-25.27-.36l0,.12c-2.81-3.31-1.66-7.3-1.82-11-.24-5.92-.34-6-6.27-6.25-3.73-.16-7.72,1-11-1.8Z"/><path class="cls-27" d="M389.78,647.77c-5.48,0-11,.19-16.44.09-2.81-.05-4,1-3.67,3.8a17.59,17.59,0,0,1,0,3.48c-.35,3.75,1.85,9.23-.93,10.87-4.22,2.49-10,.77-15.1.73-2.13,0-2-1.86-2-3.35,0-3.65,0-7.31,0-11,0-1.57.61-3.39-1.15-4.55-5.49,0-11-.07-16.47.08-2.43.06-3.69-.38-3.35-3.22a78.2,78.2,0,0,0,.17-8c.85-7.92.85-7.92,9-7.93,14.23,0,28.44.78,42.67.11,6.61-.32,6.56-.06,6.66,6.43,0,3.81-.46,7.63.36,11.41C389.61,647.12,389.69,647.44,389.78,647.77Z"/><path class="cls-27" d="M251.83,632.79c.86-2.26,2.36-3.09,4.9-3,9.46.17,18.93.26,28.39,0,3.93-.11,4.66,1.42,4.65,5,0,13.26.06,13.34-13.29,13.12-8-.13-16,.69-23.9-.54-.22,0-.51.38-.77.58Z"/><path class="cls-28" d="M251.83,519.81a4,4,0,0,0,.68-1.29c1-7.68,1-7.68,9.24-7.73,9,0,9,0,9,8.79,0,8.3,0,8.29-8.46,8.3-3.49,0-7,0-10.45,0Z"/><path class="cls-29" d="M428.66,590.87c-2.16,3.55-.9,7.44-.89,11.15,0,3.53-.75,5-4.67,5-12.58,0-12.36.2-12.62-12.45-.09-4.69,1.4-6.24,5.88-5.69,4.08.51,8.32-.82,12.3,1Z"/><path class="cls-30" d="M449.59,608.71c-4.17,2.49-8.73,1-13.06,1s-6.16.82-6,5.72c.33,11.48.06,11.47,11.6,11.47,19.77,0,39.54-.12,59.31.07,4.12,0,5.64-1.14,5.31-5.32a85.53,85.53,0,0,1,.21-12.39c1.63,5.78-.6,11.87,1.49,17.59-.42,2.19-2.14,1.09-3.19,1.09-24,.11-47.9.08-71.85.25-3.06,0-4-.73-3.8-3.82.34-5-1.66-11.45.8-14.49s9.32-.67,14.23-1C446.27,608.77,447.93,608.76,449.59,608.71Z"/><path class="cls-31" d="M133.85,609.9c1.81,4.15.67,8.5.75,12.74.05,3.24,1.09,4.32,4.34,4.3q33.17-.15,66.33,0c3.08,0,4.41-.68,4.49-4.11.32-13,.44-12.92-12.5-13-2.19,0-4.7,1-6.54-1.19,5.65.09,11.3.23,16.95.23,1.88,0,3.11,0,3,2.54-.17,5.63-.06,11.27-.06,16.77-24.39,0-48.35-.11-72.3.11-4,0-5-1.15-4.71-4.89C134,618.9,133.8,614.39,133.85,609.9Z"/><path class="cls-2" d="M389.52,646.8c-1.85-3.61-.85-7.48-.74-11.18.14-4.34-.91-6-5.72-5.93-14.07.34-28.16.12-42.24.11-8,0-8,0-10,7-.38-8.47-.38-8.49,8.13-8.5,15.73,0,31.46.13,47.19-.09,3.16,0,3.81.78,3.62,3.72C389.46,636.86,389.58,641.84,389.52,646.8Z"/><path class="cls-32" d="M428.63,391c.05,5.49,0,11,.2,16.46.12,2.8-.78,3.69-3.61,3.65-10.31-.16-20.63.18-30.92-.21-4.23-.16-5,1.34-4.74,5,.25,4.31,0,8.64-.09,13-1.69-4.17-.87-8.55-.71-12.79s-1.42-5.29-5.46-5.24c-15.63.19-31.28-.06-46.91.12-4.27,0-6-1.18-5.83-5.67.28-9.48-.12-19,.18-28.48.14-4.13-1.37-5.25-5.17-5-3.32.26-6.67-.1-10,.1-3.13.19-4-1.13-4-4.09q.13-25,0-50c0-3.09,1.06-4.14,4.07-4,3.82.18,7.66-.06,11.49.06,2.56.08,3.54-.91,3.52-3.5q-.12-16.49,0-33c0-2.56-.93-3.6-3.52-3.53-4.32.12-8.66.12-13,0-2.58-.07-3.59.94-3.51,3.52.12,4-.06,8,.05,12,.07,2.58-1,3.58-3.54,3.51-4-.12-8,.06-12-.06-2.57-.07-3.63.9-3.49,3.51.2,3.65.07,7.33.31,11s-.51,6-5.1,5.61a119.62,119.62,0,0,0-12-.06c-1.57,0-3.22.06-2.88,2.33,1.46,9.74-.33,19.45-.3,29.18,0,13.66-.13,27.32,0,41,0,3.41-.92,4.85-4.5,4.6a102.42,102.42,0,0,0-11.49,0c-2.89.12-4.53-.72-4.11-3.91a8.32,8.32,0,0,0,0-1c-.15-13.32-.15-13.32-13.72-13.25-7.24,0-7.24,0-7.24-7.24,0-9.49-.12-19,.06-28.48.06-3.32-1.11-4.61-4.33-4.2a16.67,16.67,0,0,1-2,0c-12.9,0-12.87,0-12.82-13.19,0-13.33.14-26.65,0-40,0-3.6.82-5.23,4.71-4.91,3.64.3,7.34-.14,11,.13s4.51-1.25,4.45-4.62c-.18-10.66,0-21.32-.1-32,0-2.92.15-4.43,4.12-3.89,4.51.62,9.24-.27,13.86-.58,2.13-.14,2.06-1.8,2.06-3.32,0-4,.13-8,0-12-.11-2.86,1.08-3.81,3.83-3.74,4,.09,8-.39,12-.11,3.5.24,4.4-1.25,4.31-4.34-.11-4,.08-8,0-12-.08-2.59.95-3.58,3.52-3.51,4.16.12,8.33-.15,12.49,0,3.11.14,4.14-1.1,4-4.09-.18-3.32.16-6.67-.07-10-.25-3.57.79-5.25,4.71-4.92s7.75-.44,11.46.24c4,.72,4-1.1,4-4-.09-10.33-.06-20.65-.05-31,0-5.07,1.52-6.44,6.49-6,12.51,1.2,12.5,1.2,12.51-11.15q0-34.23.1-68.45c5.31.08,10.63.33,15.94.18,2.49-.06,3.1.76,3,3.09-.16,4.65.07,9.31-.1,13.95-.08,2.39.69,3.17,3.08,3.1,5.64-.17,11.29-.09,16.94-.1.7,11.59.24,23.18,0,34.76-.07,3.35.6,4.55,4.19,4.48,5.28-.12,10.58.48,15.86.77q.19,55.63.36,111.27c0,2.48-.18,5-.28,7.46-.38,2.62-1.46.9-1.87.17-1.33-2.45-1-5.19-1-7.83-.08-10.94-.06-10.83-10.72-10.32-3.38.16-4.75,1.44-4.75,4.8,0,8.48,0,17,0,25.46,0,8.73-1,9.66-9.78,9.76-11,.13-10.16-1.66-10.2,10.09,0,6.15,0,12.31,0,18.47.05,7.08.49,7.47,7.38,7.06,1-.06,2-.11,3-.14,8-.23,8-.23,8.07-8.5.05-10.76.05-10.76,10.66-10.54,1.16,0,2.33-.06,3.49,0,3.33.18,4.89-1.23,4.84-4.67s-.07-7,.11-10.48,2-5.47,5.6-5.7c2.66-.16,5.32-.32,8-.43,3.9-.18,5.81-1.75,5.36-5.86a50.15,50.15,0,0,1-.07-6.49c0-1.63-.17-3.41,1.73-4.32l1.15-.53c1.26-6.47-.41-13.06.87-19.53,4.78-.06,9.56-.29,14.33-.12,2.89.1,4-.44,3.83-3.73-.37-5.41-.11-10.87-.12-16.31,5.14,0,10.29.19,15.42-.1,3.21-.18,3.77,1,3.79,3.95.08,16.91.47,33.82.52,50.73,0,3.36.67,4.7,4.29,4.46,5-.32,9.95-.06,14.92-.05.11,3.81.32,7.62.32,11.42,0,27.57-.11,55.13-.06,82.7,0,2.62-.19,4.55-3.34,4.65a4.43,4.43,0,0,0-3.39.1,39.48,39.48,0,0,0-12.65,0H449l-.39.17c-4.06,1.45-8.26.58-12.39.68-3.34.09-4.89,1.33-4.8,4.76.07,2.82.05,5.66-.13,8.49-.22,3.6-2.12,5.41-5.69,5.64-2.83.19-5.67.2-8.49.15-3.45-.07-4.77,1.55-4.69,4.86.06,2.83.11,5.67-.09,8.49-.36,4.83-1.65,6.15-6.41,6.53-3.16.25-6.33.08-9.49.16-2.7.06-3.71,1.35-4,4-1.28,12.37-1.34,12.37,10.94,12.36,5.66,0,11.33-.15,17,0,4.16.15,5.67-1.61,5.49-5.61a33.63,33.63,0,0,1,.37-9C426.52,392.34,426.73,390.82,428.63,391Z"/><path class="cls-6" d="M331.61,490.12c.17-6.69-.85-13.4.3-20.08a1.63,1.63,0,0,1,1.54-.24c5.25,0,10.51.45,15.75-.3a1.41,1.41,0,0,1,.92,1.37c0,5-.23,9.93.09,14.87.24,3.7-.89,5.26-4.66,4.65-1.28-.2-2.64.17-3.91-.33Z"/><path class="cls-33" d="M369.75,686.61c.2-6.24.51-12.49-.17-18.73,5.31,0,10.63.13,15.93-.11,3.34-.15,4.41,1.15,4.2,4.34a76.4,76.4,0,0,0,0,9.45c.17,3.11-.77,4.37-4.16,4.43-13.69.24-13.69.36-13.93-13.49a3.07,3.07,0,0,0-.9-2.42v16.6l-.49.06Z"/><path class="cls-26" d="M341.64,490.06c8.15-.32,8.17-.32,8.11-8.81,0-3.66-.13-7.31-.2-11-.1-4.49-1.83-9.1.91-13.4l.21,12.92c0,4.66,0,9.31.05,14C350.73,491.65,349.67,492.38,341.64,490.06Z"/><path class="cls-34" d="M93.63,687.9q0-10,0-20c5.33,0,10.67.09,16-.16,3.35-.16,4.36,1.18,4.24,4.36-.19,5.16-.06,10.33-.06,15.5Z"/><path class="cls-35" d="M54.87,646.9q0-9.54,0-19.08c5.47,0,10.94.13,16.41,0,2.57,0,3.56,1,3.48,3.53-.12,3.81-.17,7.63,0,11.44.14,3-.91,4.16-4,4.06C65.48,646.73,60.17,646.88,54.87,646.9Z"/><path class="cls-10" d="M65,490.79c9.73.07,9.73.07,9.74,9.8s0,9.73-10,9.53-10-.2-10-9.21C54.72,490.72,54.72,490.72,65,490.79Z"/><path class="cls-7" d="M271.57,470.86c5.63,0,11.27,0,16.9-.09,2.1,0,2.37.93,2.33,2.73-.13,5.48-.08,11-.1,16.44-5,0-10-.24-14.92,0-3.3.18-4.76-.45-4.45-4.19C271.74,480.83,271.52,475.83,271.57,470.86Z"/><path class="cls-29" d="M74.84,648.91c-.08-.33-.17-.66-.26-1,5.14,0,10.29,0,15.43-.18,2.78-.1,3.9.94,3.79,3.73-.14,4-.12,8,0,11.95,0,2.5-.86,3.8-3.5,3.46a2.67,2.67,0,0,0-.49,0c-13.91.45-13.89.45-14.11-13.22C75.63,652.06,76.16,650.31,74.84,648.91Z"/><path class="cls-2" d="M350.46,456.88c-1.69,4.37-.51,8.94-.91,13.4A.78.78,0,0,1,349,470a81.5,81.5,0,0,1-16.6,0l-.23.12-.23-.1c3-2.43,6.55-.92,9.82-1.05,6.92-.27,6.93-.09,6.95-7.12,0-9,0-9-8.82-9-20.63,0-41.26.09-61.89-.1-4.07,0-5.65,1-5.42,5.28.18,3.22.92,6.63-.71,9.77,0-1.81-.14-3.61-.16-5.42-.08-11.06-.07-11.06,10.82-10.88l9.78.21c16.09-.77,32.18-.18,48.26-.29,3.27,0,6.61-.69,9.84.49C350.4,453.58,350.43,455.23,350.46,456.88Z"/><path class="cls-26" d="M350.38,451.93l-58.09-.2c19.15-.79,38.32-.64,57.48-.48C350,451.25,350.18,451.7,350.38,451.93Z"/><path class="cls-36" d="M409.56,234.18c0,5,0,9.91.13,14.87.06,2.14-.17,3.37-2.94,3.08-2.25-.24-4.58.61-6.89.7-9.23.37-9.23.33-9.23,9.82,0,11.3,0,11.3-11.21,11.19-7.89-.08-7.89-.08-7.85,7.75.06,11.1.06,11.09-11.1,11.4a31.07,31.07,0,0,0-3.47.32c-6.12.87-7.37-.19-7.37-6.25,0-9.81.07-19.63,0-29.45,0-2.88,0-4.29,4-3.93,16.06,1.45,16.08,1.24,16.09-14.66,0-7,.12-14,0-21-.06-2.91.74-4.05,3.89-4.16,15.1-.56,15.09-.66,15.13,14.4,0,1.8.14,3.61.24,5.41,0,.07.27.18.4.17s.29-.14.44-.22Z"/><path class="cls-37" d="M411.58,214.12c-.41,6.51,1.17,13.1-.87,19.53C411.11,227.14,409.54,220.55,411.58,214.12Z"/><ellipse class="cls-38" cx="471.3" cy="302.26" rx="0.4" ry="65.68"/><path class="cls-39" d="M428.63,391c-2.07,4.61-.81,9.46-.85,14.18,0,3.66-1,4.95-4.82,4.85-9.65-.25-19.31-.17-29-.06-2.59,0-3.91-.25-3.55-3.45a57.09,57.09,0,0,0,0-11.47c-.39-4.33,1.4-5.52,5.43-5.21,3.8.3,7.65,0,11.48.08,2.33.05,3.29-.93,3.25-3.26-.09-4.33.09-8.66-.06-13-.1-2.81,1-3.87,3.78-3.76,3.82.15,7.66-.08,11.48.06,2.75.11,3.94-.86,3.82-3.72-.16-3.82.08-7.66-.07-11.48-.12-2.78.89-4.08,3.73-3.8,5.08.5,10.31-1,15.29,1a2.06,2.06,0,0,1-.11.95c-.5,11.61-.95,23.23.24,34.83.79,2.67-.72,3.05-2.87,3.05-5.42,0-10.83.07-16.25.11Z"/><path class="cls-32" d="M448.75,387.77a2.26,2.26,0,0,1-1.05-2.11c0-10.32,0-20.64.05-31,0-.59.5-1.17.76-1.76Z"/><path class="cls-9" d="M449.44,351.82c4.21-1.17,8.42-.58,12.64,0Z"/><path class="cls-40" d="M387.5,112.67H371.9l0-.4h15.61Z"/><path class="cls-41" d="M212.62,588.32c0-4.83.14-9.67-.05-14.49-.12-3.08,1.07-4.33,4.07-4a4.17,4.17,0,0,0,.5,0c14.65-.33,14.65-.33,14.63,14.32,0,6.33-.11,12.66,0,19,.06,2.83-1,3.87-3.77,3.77-4-.14-8-.17-12,0-2.7.1-3.47-1.13-3.42-3.6.09-5,0-10,0-15Z"/><path class="cls-36" d="M449.68,340.75c0-8.82,0-8.82,9-8.79s9,0,9,8.9c0,9.07,0,9.07-9.31,9.07C449.7,349.92,449.7,349.92,449.68,340.75Z"/><path class="cls-26" d="M332.37,470a103.37,103.37,0,0,1,16.6,0C343.43,471.22,337.9,470.82,332.37,470Z"/><path class="cls-42" d="M786.61,561.25q-34.56,0-58.88-13.14a87.74,87.74,0,0,1-37.15-38.29q-12.84-25.14-12.83-60.74V366.49q0-35.79,12.83-60.84a88.43,88.43,0,0,1,37.15-38.29q24.32-13.25,58.88-13.25,28.56,0,50.81,12.21t36.84,35.39q14.6,23.19,20.18,56.3H835.66q-3.31-15.11-10.24-25.56a49.4,49.4,0,0,0-16.77-16,43.75,43.75,0,0,0-22-5.59q-23.8,0-36.94,14.59t-13.14,41.08v82.59q0,26.49,13.14,41t36.94,14.48q18.63,0,31.46-12.31t17.59-34.88h58.78q-5.79,32.91-20.38,56.2T837.32,549Q815.17,561.25,786.61,561.25Z"/><path class="cls-42" d="M942,558.15V257.22h56.71V558.15Zm124.19,0V428q0-15.93-9-24.52t-25.56-8.59q-15.74,0-24.32,8.8t-8.59,24.73l-4.34-47.6q9.32-19.45,22.66-30t34.67-10.56q33.94,0,52.57,22.87t18.62,64.68V558.15Z"/><path class="cls-42" d="M1237.18,561.25q-34.35,0-51.53-16.35t-17.18-50.09q0-32.07,19.14-47.91t57.44-15.83h53.81l2.9,43.26h-56.51q-12.82,0-19.25,5.07t-6.41,15.41q0,10.56,8.17,15.63t24.32,5.07q22.56,0,33.74-5.17T1297,494.19l4.35,31.26a29,29,0,0,1-11,20.18,63.16,63.16,0,0,1-23.9,11.79A112,112,0,0,1,1237.18,561.25Zm59.81-3.1V422q0-14.9-9.93-23t-28.15-8.07a76.49,76.49,0,0,0-23.8,3.83,65.88,65.88,0,0,0-20.9,11.07L1179,371.26q12.84-14.7,34-22.87t46.77-8.18q42.42,0,65.61,20.9t23.18,59v138Z"/><path class="cls-42" d="M1401.31,313.93V257.22H1458v56.71Zm0,244.22V343.31H1458V558.15Z"/><path class="cls-42" d="M1510.79,558.15V343.31h56.71V558.15Zm124.18,0V428q0-15.93-9-24.52t-25.56-8.59q-15.73,0-24.32,8.8t-8.59,24.73l-4.34-47.6q9.3-19.45,22.66-30t34.67-10.56q33.93,0,52.56,22.87t18.63,64.68V558.15Z"/><path class="cls-42" d="M1829.73,561.25a193.26,193.26,0,0,1-55.16-7.76q-26.17-7.75-44.6-21.63l35-43.67a137.12,137.12,0,0,0,32.49,15.32,106.77,106.77,0,0,0,32.29,5.38q19.88,0,30.84-4.45t11-12.32q0-9.51-7.56-13t-19.76-4.66q-12.23-1.14-25.87-3-13.87-1.86-27.43-4.45a88.19,88.19,0,0,1-24.73-8.49,43.35,43.35,0,0,1-17.8-17.8q-6.63-11.9-6.62-32.39,0-32.49,23-50.29t65-17.8a166.73,166.73,0,0,1,48.53,7.24A149,149,0,0,1,1921,367.94l-33.73,41.19a136.84,136.84,0,0,0-29.39-12.21,107.57,107.57,0,0,0-29.39-4.35q-17.19,0-26.7,3.83t-9.52,11.08q0,6.19,6.62,9.31t17.39,4.45q10.76,1.35,23.18,2.79,14.28,1.67,28.77,4a89.89,89.89,0,0,1,26.59,8.59,48,48,0,0,1,19.56,18.83q7.45,12.63,7.45,34.77,0,33.74-24.11,52.36T1829.73,561.25Z"/><path class="cls-42" d="M1967.36,645.49V343.31h56.71V645.49ZM2074,561.25q-18.84,0-32.49-9.62t-20.29-27.22l2.9-49q0,10.56,3.73,18a25.87,25.87,0,0,0,10.86,11.38q7.14,3.93,17.29,3.93,15.93,0,24.73-10.55t8.79-29.81V434.17q0-19.65-8.79-30.52T2056,392.78q-10.15,0-17.29,4a26.25,26.25,0,0,0-10.86,11.69q-3.73,7.67-3.73,18.63l-4.34-47.61q8.68-18.82,22.87-29.08A52.37,52.37,0,0,1,2074,340.21q34.56,0,53.4,24.53T2146.18,434v34.35q0,44.3-18.83,68.61T2074,561.25Z"/><path class="cls-42" d="M2256.29,561.25q-34.35,0-51.53-16.35t-17.18-50.09q0-32.07,19.14-47.91t57.44-15.83H2318l2.89,43.26h-56.5q-12.83,0-19.25,5.07t-6.41,15.41q0,10.56,8.17,15.63t24.32,5.07q22.56,0,33.74-5.17t11.17-16.15l4.35,31.26a29,29,0,0,1-11,20.18,63.16,63.16,0,0,1-23.9,11.79A112,112,0,0,1,2256.29,561.25Zm59.81-3.1V422q0-14.9-9.93-23T2278,390.92a76.49,76.49,0,0,0-23.8,3.83,65.88,65.88,0,0,0-20.9,11.07l-35.19-34.56q12.84-14.7,33.95-22.87t46.77-8.18q42.42,0,65.61,20.9t23.18,59v138Z"/><path class="cls-42" d="M2423.52,558.15V343.31h60.85V558.15Zm120.87-155a24.33,24.33,0,0,0-10-6.21,43.44,43.44,0,0,0-14-2.07q-17.18,0-26.59,11.07t-9.42,30.74L2480,380.78q8.89-19,23.08-29.81a50.38,50.38,0,0,1,31.15-10.76,66.58,66.58,0,0,1,24.32,4.24A53.26,53.26,0,0,1,2577.5,357Z"/><path class="cls-42" d="M2604.41,558.15V257.22h56.71V558.15Zm34.15-14.9-7.66-62.51,100.17-137.43h60Zm97.48,14.9-54.22-110.94,46.77-28.15,73.06,139.09Z"/></svg>