<svg id="Layer_1" data-name="Layer 1" xmlns="http://www.w3.org/2000/svg" viewBox="0 0 1451.34 1451.34"><defs><style>.cls-1{fill:#eea844;}.cls-2{fill:#fcf9f2;}.cls-3{fill:#fcf9f3;}.cls-4{fill:#1d2328;}.cls-5{fill:#1a1f23;}.cls-6{fill:#1e2428;}.cls-7{fill:#1b2025;}.cls-8{fill:#1c2125;}.cls-9{fill:#202527;}.cls-10{fill:#1d2226;}.cls-11{fill:#1e2327;}.cls-12{fill:#1f2428;}.cls-13{fill:#191e23;}.cls-14{fill:#1c2024;}.cls-15{fill:#1f2328;}.cls-16{fill:#1e2328;}.cls-17{fill:#1d2327;}.cls-18{fill:#1b1f21;}.cls-19{fill:#1b2125;}.cls-20{fill:#1c2226;}.cls-21{fill:#1c2126;}.cls-22{fill:#181d20;}.cls-23{fill:#f9d666;}.cls-24{fill:#f8d155;}.cls-25{fill:#fbf9f2;}.cls-26{fill:#d8d6cf;}.cls-27{fill:#c3c6c5;}.cls-28{fill:#c3c5c5;}.cls-29{fill:#c1c5c4;}.cls-30{fill:#fcfcfc;}.cls-31{fill:#fcfcfb;}.cls-32{fill:#f8da4b;}.cls-33{fill:#c2c5c4;}.cls-34{fill:#c2c6c5;}.cls-35{fill:#c3c6c6;}.cls-36{fill:#eda844;}.cls-37{fill:#f6ed9d;}.cls-38{fill:#263055;}.cls-39{fill:#eda843;}.cls-40{fill:#2c2f64;}.cls-41{fill:#c4c7c6;}</style></defs><title>Logo512</title><path class="cls-1" d="M747.56,74.83l.72,2.11c5.92,8.58,2.48,18.32,3.34,27.51a51.29,51.29,0,0,1-.5,11.67c1.17,42.28.22,84.58.51,126.87,0,6.93.29,13.89-.2,20.81-.74,10.55-4.34,14-14.81,14.62-.66,0-1.33,0-2,.05-20.65.36-20.64.36-20.66,20.81,0,14.87.22,29.75-.1,44.61-.28,12.59-2.34,14.43-14.53,14.21-23.78-.44-23.78-.44-25.13,22.63-.68,11.56-3.39,14.22-15.21,14.78-5.28.25-10.57.16-15.86.2-5.83.05-8.3,2.79-8.38,8.52-.09,5.94.09,11.89-.41,17.83-.66,7.79-4.75,12-12.64,12.51-5.93.41-11.88.77-17.82.77-6.35,0-8.91,3-8.83,9.15.06,4.29,0,8.59-.14,12.88-.5,12-2.79,14.55-14.49,15.48-5.27.42-10.51,1.56-15.77,1.44-7.61-.18-9.46,3.65-9.38,10.47q.3,25.77,0,51.55c-.16,15.33-2.55,17.61-18,17.89-23.27.41-21.48-2.78-21.56,22.25-.08,24.45-.12,48.91,0,73.36.07,11.15.82,11.74,11.81,12.08,25.8.81,25.79.81,25.81,26.22,0,14.21.19,28.43-.05,42.63-.14,7.63,2.83,10.94,10.52,10.51,4.93-.27,9.91-.12,14.86.06,13.28.47,15.84,3.13,16.26,16.78.12,4,0,7.93.33,11.89.25,2.77.92,5.56,4,6.11a71.18,71.18,0,0,0,23.66.08c3.63-.57,4-3.92,4.17-7,.37-6.27.33-12.56.18-18.83-.87-38.31,1.41-76.58,1.47-114.88,0-7.13,3.43-10.22,10-10.85a127.93,127.93,0,0,1,17.83-.34c8.36.37,11.29-3.55,10.62-11.42a100.3,100.3,0,0,1-.12-13.87c.62-11,3.31-13.67,14.6-14.27,4.95-.27,9.91-.15,14.86-.26,5.29-.1,7.82-2.45,7.95-7.83.13-5.61.09-11.23.32-16.85.33-7.86,4-12.3,12.14-12.61,7.59-.3,15.19-.38,22.78,0,7,.39,11.23,3.93,11.47,11.06.72,21.14.64,42.29,0,63.43-.21,7.59-4.54,11.25-12,11.64-5.61.29-11.23.25-16.84.3-5.84.06-8.3,2.79-8.35,8.51-.22,30.08-.15,60.14,0,90.22,0,6.35,3,8.85,9.13,8.81,4.95,0,9.92-.13,14.87.25,9.93.75,12.86,3.44,13.33,13.46.65,13.86.15,27.75.24,41.63,0,3.64.24,7.29,0,10.9-.45,8.05,3.12,11.29,11.15,11.16,24.45-.41,48.91.08,73.36,0,5.95,0,11.89-.09,17.84.22,8,.41,12.07,4.1,11.9,12.47-.19,8.91-.16,17.83.28,26.75a6.09,6.09,0,0,1-2,3.16c-5,2.55-10.38,1.58-15.6,1.59-84.56.16-169.13-.16-253.69.21a6.59,6.59,0,0,1-3.64-1.17l.16.18c-4-4.24-3.28-9.6-3.65-14.76-.51-7,1.61-14.33-2-21-3.47-3.32-7.8-3.05-12.09-3.05-15.79,0-31.59.08-47.38,0-13.59-.08-15-1.61-15.14-15.57,0-3.62,0-7.24,0-10.86-.08-13.2-2.06-15.12-15.66-15.18-4.93,0-9.87-.12-14.8,0-7.93.12-11.22-3.76-11.18-11.53.07-16.12,0-32.24,0-48.36,0-4.29.27-8.61-2.81-12.15-6.09-4.57-13.13-2-19.71-2.65-5.36-.52-11.17.74-15.25-4.32-3.22-4.33-2.74-9.41-2.75-14.31q-.1-82.18,0-164.36c0-4.92-.39-10,2.82-14.28,5.86-6.24,13.57-4,20.57-4.12,16.93-.38,17.5-.27,16.1-17.4-1.19-14.51-1.9-29-1.64-43.52.09-4.64.13-9.31,3.67-13l-.19.2c9.18-6.58,19.67-2.73,29.55-3.67,3.56-.34,7.05.67,8.78.88-2.37-12.16-5.29-24.46,1.8-36.76a1.82,1.82,0,0,1,1.25-.51c6.13-4.55,13.25-2.89,20-3,14.51-.29,14.37-.16,14.7-15,.16-7.06-1.51-14.59,4-20.68a9.61,9.61,0,0,1,1.73-.61c6.89-5.79,15.15-3.17,22.84-3.5,12.39-.53,12.44-.56,13-12.89.34-8-2.24-16.62,3.51-23.9,4.27-3.25,9.3-3,14.24-3,16.82-.11,33.65-.24,50.46,0,8.16.14,11.06-3.12,10.95-11.1q-.35-25.23,0-50.46c.21-14.83,2.83-17.48,17.21-17.78,24.11-.5,22.31,3.35,22.37-23.4.08-37.93-.07-75.86.06-113.8.06-17,2.38-19.43,19.55-19.37C733.32,73.12,740.73,70.9,747.56,74.83Z"/><path class="cls-2" d="M787.65,1331.92l-.35-39.71c5.81.25,5.09,5,5.6,8.57.74,5.2.47,10.52.34,15.77-.16,6.45,2.22,9.39,9.11,9.72,18.56.9,19.11.63,19.38-18.46.24-17,2.39-19.31,19.61-19.15,8,.08,16.56-2.1,23.93,3.32q134.28.11,268.58.34c5.89,0,7.15-1.94,6.88-7.29-.41-8.24.3-16.54-.25-24.76-.4-6,1.87-7,7.22-6.76,8.57.43,17.19-.25,25.76.12,4.9.22,6.92-.61,6.91-6.24q-.3-91.68,0-183.36c0-4.88-1.53-6.15-6.17-6-8.91.33-17.86-.28-26.75.23-5.83.33-7.26-1.77-7-7.22.43-7.9-.51-15.91.29-23.76s-2.17-9-9.27-9c-84.58.25-169.15.15-253.73.14-14.86,0-29.74.24-44.59-.12-5.62-.13-7.92.65-7.7,7.25.33,10,4.47,23.59-1.68,29.2-5.46,5-18.84,1.79-28.66,1.19-7.62-.47-10.5,1.56-9.7,9.55s-.07,15.85.35,23.76c.27,4.87-.56,7-6.18,6.66-10.15-.65-23.58,3.37-29.66-1.71-6.31-5.27-2-19.17-1.84-29.27.34-28.07,1.21-56.13,1.86-84.19a2.23,2.23,0,0,1,.69-3.09c6.16-3.32,12.65-2.12,19.11-1.39,12.39,2.74,14.82.9,14.94-11.42.06-5.91-.07-11.81.07-17.71.09-3.64.21-7.3,3.75-9.64,4.93-2.53,10.28-2.14,15.53-2.14q178.56-.06,357.11,0c5.84,0,12-.9,16.91,3.71l2.17,2.13c5.44,6.58,3.14,14.46,3.46,21.82.5,11.61.7,11.75,12.47,12.31,7.32.34,15.21-2.17,21.72,3.48l1.92,1.74c5.08,7,3.82,15.21,3.61,23s2,11.22,10.51,11.37c25.31.43,25.31.75,25.32,26.55v227.72c0,4,.11,7.93-.13,11.88-.68,11.08-3.44,13.85-14.43,14.59-20.67,1.38-20.67,1.38-21.16,22.25-.12,5,0,10-3.79,13.93l.24-.24c-6.86,5.84-15.12,3.36-22.83,3.65-13,.48-13,.47-13.44,13.43-.29,7.7,2.19,16-3.65,22.82l.27-.24c-3.42,3.28-7.66,3.82-12,3.12-10.18-1.64-20.41-1.11-30.63-1.12q-145.57-.06-291.14-.07c-6.19,0-12.61,1-18.35-2.47-7.17-10.9-3.34-22.7-2.65-34.22a2.79,2.79,0,0,1,2.65-2.49c2,0,2.71,1.71,3.24,3.24,2,5.76,1.34,11.78,1.36,17.69,0,6.28,2.85,8.56,9,9,18.43,1.2,23.74-5,19.29-23.12-.73-3-2.07-5-5.12-5-10.44-.15-20.83-1.31-31.28-1.45-12.53.93-25.21,4.15-37.16-2.7Z"/><path class="cls-3" d="M668.7,978.74c.11,10.57.42,21.14.24,31.71-.08,5.06.15,7.7,6.81,7,9.14-1,18.48,0,27.72-.33,5-.18,7.11,1,6.92,6.48-.39,11.52-.12,23.06-.12,34.58-39,1-77.43-1.79-115.9-1.89-1.41,0-2.56-.24-2.68-2,6.25-5.49,13.85-3.07,20.89-3.35,12.44-.49,12.9-.69,13.09-12.79,0-2.64.05-5.28,0-7.91,0-1.65.32-4-1-4.67-7.11-3.67-14.75-1.22-22.17-1.38-4.22-.09-5.18,3.08-6,6.55-.68,3-.22,7-4.84,7.48-1.17-6.78,2.87-16-2-19.81-4-3.17-12.65-.28-19.24-.28q-122.34-.06-244.67-.34c-6.32,0-8.54,1.16-8.06,7.83.61,8.54-.41,17.19.07,25.74.33,5.89-1.87,7.15-7.24,6.89-8.56-.42-17.17,0-25.74-.18-4.55-.12-7,.3-7,6.17q.27,91.63-.17,183.26c0,5.08,1.05,6.88,6.49,6.55,9.21-.57,18.53.32,27.71-.47,6.25-.54,7.07,1.63,6.71,7-.52,7.9.34,15.89-.39,23.75-.67,7.18,2,8.32,8.6,8.3,78.59-.21,157.17,0,235.76-.18,9.67,0,19.42,3,29-.3.78-5.15,4.24-4.51,8.11-4.2,17.74,1.42,35.54.26,53.3.72,7.9.2,10.68-3.45,10.16-10.76-.1-1.31,0-2.63,0-4,0-13.59-.34-14-13.63-14-13.5-.08-27,.23-40.49-.13-6-.16-11.57,2-17.41,2.46-1.09-5.42-.26-8.14,6.65-8,20.8.5,41.63.33,62.44,0,5.63-.1,8.26.24,8.09,7.22-.55,22.78-.21,45.59-.22,68.38a2.42,2.42,0,0,0,0,1.85c-6.55,5.57-14.46,3.28-21.84,3.59-11.66.49-11.77.69-12.35,12.48-.39,8,2.39,16.6-3.69,23.75l.27-.27c-2.13,1.89-4.71,2.08-7.41,2.17-98.06,3.21-196.15,1.29-294.22,1.69-4,0-7.95-.18-11.46-2.43-6.08-7.09-3.46-15.66-3.76-23.64-.51-13.42-.39-13.55-14-13.68-7.55-.08-15.11.34-22.65-.46-9.13,1.09-18.27.55-27.41.41-3.68-.06-7.11-1-9.86-3.66l.2.2c-6.36-12.08-4.69-24.46-1.37-36.88,5.9-2.53,5.5,2.64,6.11,5.52,1.23,5.82.53,11.84.7,17.77.15,5.25,2.46,7.46,7.78,8,19,2,25.83-6.5,20.51-25.53-1.35-4.82-4.81-5-8.4-5a153.54,153.54,0,0,1-26.4-1.84c-13.08,2.27-26.15,4.67-38.78-1.9l.19.18a2.09,2.09,0,0,1,.38-3c7.66-4.27,16-2.07,24.07-2.49,10.63-.54,11.27-1,11.59-11.06.64-19.61.63-19.48-18.7-19.76-6.37-.09-13.24,1.52-18.7-3.65-3.2-5.48-2.44-11.55-2.45-17.44q-.09-92.18,0-184.34c0-3.31,0-6.61,0-9.92-.07-18.13-.08-18-17.85-18.34-5.83-.1-12,1.11-17.1-3.18,7.67-5.56,16.41-2.38,24.42-2.08,10.16.37,12.75-2.82,12.55-12.74-.56-27.21-.09-27.59,27.36-27.07,9.27.18,12.79-2.14,12.29-11.9-.41-7.93-2.32-16.3,1.66-24.06,5.55,6.58,3.12,14.48,3.45,21.85.52,11.75.7,12.37,12.37,12.34,19.73-.06,18.31,3.38,18.52-18.35.06-5.48-1-11.35,3.59-15.85l2.34-.35c4-3.83,9.16-3.22,14.05-3.37,105.91-3.3,211.84-1.68,317.77-2,5.9,0,12-.54,17.35,2.71a10.12,10.12,0,0,1,2.56,2.62c3,6.13,2,12.75,2.09,19.2.19,15.37.11,15.29,15.86,15.48,5.79.07,11.77-1,17.25,2C667.92,977.9,668.31,978.32,668.7,978.74Z"/><path class="cls-4" d="M631.1,941.29c-3-1.57-6.34-1.43-9.61-1.42q-167.49.23-335,.48c-2,0-3.94.31-5.92.47C276,935,279.32,928.33,279,922.1c-.38-6.8.71-13.68,1.16-20.52,3.4-1.94,7.1-1,10.65-1,92.93-.21,185.86.26,278.78-.28a15.62,15.62,0,0,1,5.83.87c16.58,1,16.58,1,16.31-15.65-.14-7.91-.31-15.82-.46-23.73a3.52,3.52,0,0,0,1.92-.31c2.22-.86,4.55-.59,6.85-.59h258c2.3,0,4.62-.26,6.86.53,2.23,10.1.81,20.33.9,30.49.06,5.56,2,8,7.49,7.62,1.31-.09-.33,0,1,0q141.71,0,283.4,0c7.54,0,15.27-3.44,22.53,1.32-2.43,12.67-.92,25.57-2.12,38.31L787.69,939c-5.59-7.44-1.79-16-3-24-.15-3.2.6-6.63-2.3-9.15-2.4-1.46-5-1.41-7.68-1.42q-46.43,0-92.84,0a24.88,24.88,0,0,0-8.73,1.35c-9.51,1.23-19.08.58-28.62.56-7.5,0-10.94,3.2-10.69,10.74.21,5.92,0,11.86,0,17.8A7.8,7.8,0,0,1,631.1,941.29Z"/><path class="cls-5" d="M747.56,74.83c-9.83.51-19.67,1.42-29.51,1.4-6.14,0-8.23,1.39-8.17,8.18.44,46.48.12,93,.58,139.45.08,7.89-2.15,10.28-9.79,9.65s-15.18.28-22.73-.21c-6.06-.39-7.81,1.47-7.69,7.67.38,21.42-.16,42.86.22,64.28.11,6.24-1.8,7.74-7.76,7.64-23.73-.39-47.47-.28-71.21-.36-1.11-.61-1.24-1.38-.39-2.32-2-10.81-.3-21.72-.89-32.55-.23-4.38,2.12-4.71,5.48-4.67,8.92.13,17.86-.21,26.76.18,5,.22,6.76-.94,6.83-6.39.28-21.79,1.51-43.57,1.59-65.36,0-6.85,2.22-8.17,8.36-7.78,8.22.52,16.58-.51,24.75.34,7.41.77,6.76-3.29,6.75-8.09q-.09-70.38,0-140.75c0-12.28,0-12.54,12.82-11.52A555.72,555.72,0,0,0,741,35c5.67-.14,7.32,1.55,7,7.13C747.49,53,747.67,63.93,747.56,74.83Z"/><path class="cls-6" d="M827.44,1369.16c39.51,2.25,79.06.59,118.59.78,74.83.36,149.67.43,224.5.66,3.28,0,6.56.47,9.84.72-.18,10.2-.88,20.43-.35,30.6.33,6.27-1.49,7.49-7.49,7.46-51.44-.25-102.89-.12-154.33-.13-61,0-122-.19-183,.08-7,0-9.49-1.09-9-8.85.62-9.69,1-19.58-.85-29.29a1.53,1.53,0,0,1-.48-1.42c.11-.49.23-.74.36-.74A1.89,1.89,0,0,1,827.44,1369.16Z"/><path class="cls-4" d="M317.84,1371q89.94,0,179.89,0c40.21-.07,80.41-.43,120.61-.57,4.25,0,8.49.6,12.74.91-.06,9.13-.62,18.28,0,27.37.53,8.25-1,13.22-10.72,11.35-1.15-.22-2.48.5-3.73.78-2.55,2.32-5.68,1.26-8.53,1.27q-152.58.09-305.15,0c-2.87,0-6,1-8.59-1.18-1.27-.26-2.62-.92-3.81-.71-8.76,1.57-10.74-2.06-10.83-10.61-.11-9.35-1.87-18.74-1.48-28.21.44-.43.89-.87,1.33-1.32C292.39,1367.07,305.2,1365.76,317.84,1371Z"/><path class="cls-6" d="M1219.78,1331.9c-.29-11.84-.28-23.7-1-35.52-.31-5.06,2.6-4.23,5.42-4.25,7.91,0,15.85-.38,23.73.1,5.81.36,7.82-1,7.8-7.38q-.36-129.57,0-259.14c0-5.66-1.63-7-7.15-7.07-9.81,0-23.33,4.33-28.4-1.71-4.83-5.77-1-18.81-.93-28.66,0-2.55.42-5.11.64-7.66,10.24,0,20.49.44,30.7,0,5.78-.24,7.27,1.74,7,7.22-.45,8.23.15,16.52-.21,24.76-.2,4.74,1.24,6.37,6.06,6.13,7.58-.37,15.23.41,22.77-.25,7.26-.64,9.29,1.39,9.26,9-.34,76-.2,151.93-.2,227.89,0,10.24-.25,20.49.09,30.72.16,4.78-1.34,6.27-6.11,6.07-8.57-.38-17.18.11-25.75-.26-4.73-.2-6.34,1.22-6.16,6,.34,9.23-.16,18.5.17,27.73.16,4.65-1.06,6.33-6,6.18C1240.92,1331.53,1230.34,1331.84,1219.78,1331.9Z"/><path class="cls-7" d="M865,235.34c11.09-1.86,22.34-.78,33.46-1.68,6.56-.53,8.11,1.36,8.08,8-.24,43.13,0,86.26.15,129.4.07,21,.1,21,20.92,21,4.94,0,9.88,0,14.82-.08a2.5,2.5,0,0,1,3.24,1c4.1,11.1,2.54,22.51,1.38,33.79-.66,6.45-6,7.77-11.57,8.31-7.44.74-15-.78-22.33,1.44-4.09,2.94-3.32,7.32-3.65,11.5-.62,7.95,2.07,16.23-2.28,23.84a8.91,8.91,0,0,1-3.21,1.82c-13.37,1.2-26.81,4.05-39.8-2.06-2.17-2.84-2-6.2-2.06-9.49-1.5-70.95-.81-141.91-.87-212.86,0-4.28-.08-8.63,2.29-12.5Z"/><path class="cls-6" d="M201.06,1290.26l-.22,2c-10.16-.08-20.32-.1-30.47-.29-3.1-.06-6.69,1.31-8.92-2.29-2.39-2.53-1.3-5.66-1.3-8.51q-.09-127.22,0-254.44c0-2.67-1.66-6,1.74-8.06l.12.4c9.9,0,19.81.22,29.69-.14,7.11-.26,9.31,2.06,9.27,9.62-.37,64.74-.23,129.47-.21,194.21,0,9.9.16,19.81.24,29.71A47,47,0,0,1,201.06,1290.26Z"/><path class="cls-8" d="M944.27,392l-1.89-.05c2.53-24,1.76-48,1.84-72.05,0-6.76.64-10.35,8.78-9.33,10,1.24,23.58-4.09,29.3,2.13,5,5.42,2,18.81,1.35,28.6-.6,8.64,1.38,12.24,10.85,11.29s19.12-.2,28.69-.2c2.47,2.49,1.33,5.63,1.34,8.46q.06,73.61,0,147.22a5.74,5.74,0,0,1-2.58,2.77c-10.37,3.11-20.94,1.85-31.44,1.21-5.69-.35-8.89-3.84-9.7-9.51a38.11,38.11,0,0,1-.51-6.9c1.15-29.08-2.82-58-2.16-87.1.28-12.25-.56-12.5-12.94-12.94C958.11,395.35,950.54,397.29,944.27,392Z"/><path class="cls-9" d="M1021.5,509l2.33-.18c13.15-.92,26.32-2.41,39.4.74l-.21-.7-.7.21c3.37,3.16,1.79,7.31,1.8,10.9q.26,88.11.09,176.23c0,2.22.72,4.68-1.3,6.53-10.05,2.36-20.29,1.32-30.42,1.31-7,0-9.67,1.46-9.44,9.21.58,19.8.2,39.64,0,59.45,0,3.06,1.78,6.6-1.4,9.24-4.19-3.82-3.48-9-3.54-13.81-.18-14.76-.15-29.52,0-44.28.05-6.62-.53-13.06-3.1-19.23,5.9-12.57,3.88-26,3.52-39-1.32-48.53-.28-97.05-.49-145.58C1018,516,1018.49,512.09,1021.5,509Z"/><path class="cls-10" d="M432.72,509q-.14,97-.26,194.07a1.44,1.44,0,0,1-2.42.39c-10.86.16-21.75,0-32.57.64-5.06.32-4.31-2.38-4.31-5.29q0-10.87,0-21.75c0-53.08.18-106.15-.21-159.22,0-7.6,2-9.5,9.25-9,9.51.65,19.11.11,28.67.09A1.07,1.07,0,0,1,432.72,509Z"/><path class="cls-11" d="M1015.4,704.86c6.14.12,6.28,4.25,6.26,8.89-.1,22.73,0,45.46,0,68.19-10.47.17-21,.74-31.4.34-5.43-.21-6.65,1.55-6.47,6.53.33,9.17-.17,18.36.2,27.53.2,4.88-1.52,6.06-6.13,5.93-11.14-.31-22.29-.11-33.44-.12-5.57-12.76-3-25.85-1.56-38.89,6.57-6.51,14.95-3.22,22.56-4.14,4.65-.56,10.29,1.48,12.7-4.88,2.17-15.62.43-31.29,1-46.91.21-6.19-.29-12.4.39-18.59a9.15,9.15,0,0,1,1.4-3.43,7.84,7.84,0,0,1,3-2.14c7.71-1.56,15.51-.54,23.27-.8C1010.06,702.51,1013.13,702.34,1015.4,704.86Z"/><path class="cls-12" d="M591.29,822.17,591.4,862c-23.93-.36-47.87-1-71.8-.93-5.81,0-8.05-1-7.65-7.34.66-10.45.3-21,.37-31.47,13.6-2.28,27.29-.83,40.93-.88C565.92,821.32,578.65,820.12,591.29,822.17Z"/><path class="cls-13" d="M748.16,115.8l.12-38.86c10.9-.06,21.79,0,32.68-.27,4-.1,5,1.39,5,5.16-.18,8.25.39,16.53,0,24.77-.26,6,.82,9,8,8.62,9.19-.51,18.47.34,27.71.76,1.9.08,5-1.63,5.05,2.45-1.54,12.71,1.07,25.58-1.39,38.27-11.64,5.3-23.73,3.13-35.64,1.72-5.42-.64-6.82-5.55-7.32-10.37a157,157,0,0,1-.4-18.66c.09-6.69-2.79-9.57-9.44-9.36-4.57.15-9.17.1-13.76-.15C754.8,119.66,750.84,119.36,748.16,115.8Z"/><path class="cls-14" d="M825.28,155.9c.83-12.48-1.63-25.08,1.43-37.47-.07,10.18,0,20.37-.29,30.55-.15,5.2,1.12,7.77,7.1,7.5,6.52-.29,13.22,1.57,19.62.76,10.13-1.28,12.34,2.37,12,12.07-.79,22-.21,44-.19,66l.08-.09c-12.55,5.25-25.15,1.82-37.62-.18-4-.63-5.2-5-5.35-8.72-.88-21.12-.85-42.25,0-63.37A11.28,11.28,0,0,1,825.28,155.9Z"/><path class="cls-15" d="M944.29,782.64l.09,39.51c-.36,10.19-1.43,20.42-.81,30.55.41,6.54-.82,8.18-7.46,8-22-.46-44.1-.21-66.15-.18a21.42,21.42,0,0,0-3.83.69,2.38,2.38,0,0,1-1.33-1.76,1.85,1.85,0,0,0-.15-1.68c-1.45-9.49,0-19.06-.75-28.54-.62-7.57,3-9.92,9.77-9.93,17.12,0,34.24,0,51.35-.05,12.27-.07,14.09-2.13,14.44-14.38.21-7.15-1.47-14.49,1.6-21.45A2.35,2.35,0,0,1,944.29,782.64Z"/><path class="cls-16" d="M430,703.49l2.42-.39c12.63,1.87,25.56-1.27,38.09,2.27,1.85,18.87.38,37.78.8,56.67.13,6.19,0,12.39.14,18.59l-.94,1.65c-10.56,0-21.14-.32-31.67.26-6.41.35-8.4-1.31-8.07-8,1-20.43,1.43-40.89,1.86-61.35C432.74,709.87,434.41,705.76,430,703.49Z"/><path class="cls-17" d="M432.72,509c-.61,0-1.23-.07-1.84-.07.61-23.44,1.44-46.88,1.7-70.32.07-5.6,1.58-7.28,7.17-7.07,10.22.39,20.48,0,30.72-.08.44,23.91.78,47.82,1.39,71.72.14,5.26-2.56,5.75-6.7,5.71C454.35,508.81,443.53,509,432.72,509Z"/><path class="cls-18" d="M511,820.32c-12.47,4-25.27,1-37.9,1.65-4.2.21-2.52-3.89-2.56-6.11-.15-11.19,0-22.39,0-33.58l-.13.32c2-3.74,5.51-3,8.71-3,8.56,0,17.11,0,25.67,0,3.48,0,7.69.32,7.7,4.28C512.52,796,515.29,808.34,511,820.32Z"/><path class="cls-19" d="M591.11,310.21l.39,2.32c-.07,10.18-.76,20.41,0,30.53.61,8.19-2.49,9.86-9.88,9.4-9.82-.62-19.71-.15-29.56-.15-.11-11.87.05-23.76-.44-35.62-.2-4.83,1.82-4.67,5.58-4.87C568.49,311.24,580,314.28,591.11,310.21Z"/><path class="cls-20" d="M510.41,392.14c.1,11.17-.08,22.36.42,33.52.22,4.94-1.4,6.13-6,6-11.49-.25-23,0-34.51,0,.08-11.12.46-22.25.09-33.35-.17-5.38,1.68-6.57,6.68-6.4C488.16,392.31,499.29,392.1,510.41,392.14Z"/><path class="cls-6" d="M1180.1,1371.56c0-11.45.26-22.91,0-34.36-.09-4.33,1.25-5.61,5.54-5.52,11.45.24,22.91,0,34.37,0-.19,11.13-.65,22.27-.44,33.4.09,4.78-1.31,6.21-6,6.14C1202.39,1371,1191.25,1371.41,1180.1,1371.56Z"/><path class="cls-8" d="M200.65,1292l39.51.24c.8.25,1.15.63,1,1.13s-.3.83-.51.83l-.19,37.64c-11.1,0-22.21-.35-33.3,0-5.27.18-6.6-1.58-6.46-6.6C201,1314.23,200.72,1303.13,200.65,1292Z"/><path class="cls-21" d="M550.32,352.92c-.06,10.52-.37,21.06-.07,31.57.15,5.31-1,7.73-7,7.42-10.52-.52-21.09-.23-31.63-.28.07-10.86.34-21.71.1-32.56-.1-4.61.27-7.16,6-6.81C528.62,352.91,539.48,352.74,550.32,352.92Z"/><path class="cls-22" d="M630.81,1371.55c.06-11.1.36-22.21.06-33.3-.13-5,1.19-6.79,6.46-6.58,10.44.4,20.9.08,31.36.06.09,11.47-.17,23,.44,34.4.24,4.4-.65,5.44-4.9,5.36C653.09,1371.27,642,1371.5,630.81,1371.55Z"/><path class="cls-20" d="M240.3,1331.68l37.54.26c6.23,13.2,6.08,26.41.09,39.64l.28-.24c-10.52.09-21.06-.23-31.53.44-5.72.36-6.36-1.92-6.27-6.63C240.61,1354,240.37,1342.84,240.3,1331.68Z"/><path class="cls-20" d="M825.53,1369l-.2,2.17c-10.58,0-21.16-.12-31.71.28-4.84.18-6.16-1.4-6-6.12.29-11.23,0-22.47,0-33.7l37.64.22C827.23,1344.24,826.6,1356.62,825.53,1369Z"/><path class="cls-6" d="M1217.93,978.87c-10.57,0-21.14-.21-31.7.12-4.72.15-6.29-1.19-6.12-6,.36-10.55.15-21.13.17-31.7l34.52-.24c2.37,0,4.76-.09,4.54,3.44C1218.6,955.92,1221,967.5,1217.93,978.87Z"/><path class="cls-10" d="M278.25,941.17c-.05,10.88-.26,21.77-.08,32.65.08,4.66-.39,6.92-6.26,6.23-10.08-1.2-23.49,2.53-29.59-2.7-6.29-5.39-1.39-19.16-1.94-29.25-.12-2.3,0-4.61-.06-6.92Z"/><path class="cls-23" d="M866.46,861.75a5.16,5.16,0,0,0-1.64.69q-103.73-.21-207.47-.45c-21.39-.06-42.79-.32-64.19-.49,3.46-2.93,7.61-1.54,11.4-1.54q122.22-.12,244.43,0c5.27,0,10.54-.28,15.81-.43l1.34,1.75S866.46,861.75,866.46,861.75Z"/><path class="cls-24" d="M511,820.32c.08-10.82.18-21.64.23-32.47,0-2.88.69-6.52-3.8-6.46-12.35.18-24.79-1.87-37.05,1.21q.06-38.61.13-77.23c3.62,4.35,1.69,9.5,1.77,14.24.26,16.46.39,32.93-.06,49.38-.19,7.13,1.65,10.31,9.32,9.75,7.86-.57,15.8.07,23.69-.16,6.39-.19,8.91,2.67,8.73,8.91-.23,7.89.28,15.82-.16,23.69-.38,6.76,1.83,9.31,8.91,9.16,19.41-.4,38.85-.19,58.27-.06,3.47,0,7.32-1.26,10.27,1.89l-79,.08Z"/><path class="cls-4" d="M1098.2,1224.41c-1.07.47-.2,1.36-.19,2C1098.06,1225.74,1098.11,1225.07,1098.2,1224.41Z"/><path class="cls-4" d="M1183.94,1073.71c0-16.49-2.67-19.07-18.88-19.24-22.66-.25-20.44,1.37-20.77-21.21-.23-15.66-2.84-18.4-18.73-18.42q-142.68-.2-285.35,0c-15.84,0-18.36,2.7-18.59,18.51-.29,20.18,1.32,18.93-19.81,19.12-17.56.16-19.69,2.39-19.88,20.25-.22,20.24-1.15,20.93-21.56,19.33-5.65-.44-8.56-2.47-8.5-8.35.29-24.09-1.16-48.18,1-72.26.92-10.44,2.7-21.05-1.72-31.23a10.06,10.06,0,0,0-7.54-4.28c-23.71-1.21-47.42-1.69-71.12.28a7.36,7.36,0,0,0-3.54,1.71c-6.62,9.29-3.5,19.83-3.42,29.8.08,9.64,3.29,12.13,12.83,12.39,6.94.19,13.87-.14,20.81.17,4.82.21,7.19,2.44,7.41,7.31.3,6.61-.08,13.23.29,19.82.31,5.57-1.87,7.4-7.48,7.42-31.38.12-62.74-.76-94.1-1.53-3.07-.07-5.91-.52-8.31-2.62-3.48-4.3-1.35-9.62-2.58-14.33-.42-21.83,1.93-21.65-21.74-21.62q-116,.13-232,0c-4.63,0-9.25,0-13.88.23-7.89.4-12.12,4.37-12.57,12.35-.22,4-.23,7.92-.28,11.88-.17,15-.17,15-14.76,15.18-4.29,0-8.58,0-12.88.3-7.52.51-11.35,4.5-11.76,12-.19,3.3-.24,6.6-.24,9.9q0,79.31,0,158.61c0,3.63.06,7.26.3,10.9.5,7.53,4.54,11.3,12,11.83,6.61.47,13.22.36,19.82.28,5.51-.06,7.74,2.33,7.62,7.74a166.06,166.06,0,0,0,.36,16.84c.65,8.24,4.74,12.69,13.2,12.92,4,.11,7.92.2,11.89.2,51.55,0,103.09-.2,154.64.08,29.39.15,58.8-1.32,88.17,1,4,.32,8-.22,10.56-4,3.68-9.52,1.25-19.59,2.58-29.34,1.21-6.06,5.87-6.25,10.64-6.26,16.43,0,32.86.24,49.29-.11,7.7-.16,10.47,2.92,10.53,10.47.12,16.1-1.14,32.18-.7,48.28.13,4.83-.68,10,3.47,13.85,3,3,6.84,1.8,10.35,1.82q54.32.19,108.65.22c5.34-13,3.12-26.19,1.3-39.41-5.68-5.48-12.86-3.63-19.49-3.74-17.75-.3-17.76-.14-18.13-17.32-1.18-16.07-1.18-16.07,14.42-16.09,13.43,0,26.89,1.63,40.19,1.34,14.32-.31,28.66,1.41,43-.71,11.73-1.73,12.8.28,13.21,12,.28,8.12-1.83,16.46,1.81,24.3a7.83,7.83,0,0,0,2.77,2c4.07,1.64,8.4,1.54,12.68,1.55q122.87.06,245.72,0c16.41,0,19-2.69,19.11-19,.18-21.84-.83-18.25,18.68-18.66,17.64-.37,20.93-3.52,21-21Q1184.13,1155.45,1183.94,1073.71Zm-639.67,23.18c-8.24-.23-16.53.4-24.74-.2-7.67-.56-10,2.71-9.54,9.76.34,5.26.08,10.55.06,15.83-.07,12.2-.07,12.2-11.8,12.22-7.59,0-15.18,0-22.77,0-1.78,0-4.1-.87-4.92,1.88l-.07,77.9c9.91,3.28,20.1,1.14,30.15,1.33,6.13.11,9.12,1.3,8.53,8.18a163.72,163.72,0,0,0-.05,20.78c.22,5-1.32,7-6.67,7q-68.81-.24-137.61,0c-5.47,0-6.55-2.23-6.56-7.06,0-9.21.89-18.45-.57-27.63-.1-3.85-2.69-3.6-5.44-3.49-9.56.37-19.16.26-28.68,1.07-5,.43-6.07-1-6-5.74.17-35,.23-70-.05-105-.05-5.68,2.16-6.35,6.9-6.21,10.88.33,21.78.17,32.67.21,2.66-9.93,2.46-20.1,2.24-30.22-.14-6.41,2.32-8.51,8.78-8.49q87.62.32,175.23,0c5.39,0,7.78,1.3,7.48,7.14a184.52,184.52,0,0,0,.07,23.75C551.27,1095.38,549.36,1097,544.27,1096.89Zm595.35,110c.05,5.39-1.52,6.68-6.59,6.45-8.57-.39-17.2.3-25.76-.24-5.54-.35-6.59,1.74-6.48,6.67.22,10.23-.12,20.47-.24,30.71a6.59,6.59,0,0,1-2.55-3.33,7.69,7.69,0,0,1-1.46,2.3c-5.19,5.53-15.6,1.87-23.7,1.91-39.23.22-78.47-.1-117.7.27-7.68.07-10.85-1.83-9.95-9.85s-3.32-18.77,1.58-24c5.38-5.71,16.23-1.26,24.65-2,4.15-.39,8.52,1.26,12.46-1.28,0-23.76-.2-47.53.11-71.29.07-5.81-1-8.19-7.44-7.79-10.45.65-21,.29-31.44.34,0,0,0,.1,0,.16l-.25-.16h.23c-2.13-10.4-.83-20.92-.85-31.36,0-5.21-1.46-6.67-6.64-6.62-21.15.22-42.3-.26-63.44.1-6.94.11-10.36-1-9.38-9,1.24-10-4.17-23.61,2.21-29.3,5.58-5,18.84-1.49,28.71-1.49,64.77,0,129.54.2,194.31-.27,9.42-.07,11.78,2.78,10.91,11.43-.69,6.86.24,13.89-.25,20.79-.42,5.84.93,8.32,7.42,7.82,8.21-.63,16.51,0,24.77-.21,4.52-.13,6.81.27,6.75,6.15C1139.26,1138.18,1139.33,1172.55,1139.62,1206.92Z"/><path class="cls-25" d="M470.56,1136.42c7.21-6.23,15.73-2.22,23.57-2.65,13.95-.76,13.88-.22,14-13.93.26-27.75-3.76-23.61,24.21-24,20-.28,17.39,2.53,17.32-17.28-.07-21.44,2.9-18.29-18.21-18.35-53.1-.15-106.22.16-159.32-.25-8.83-.07-11.68,2.47-11,11.15.7,9.06.08,18.2-4.07,26.65.12-11.21.5-22.43.25-33.63-.11-4.84,1.42-6,6.11-6q91.09.23,182.2,0c4.61,0,6.25,1.09,6.22,6a282.44,282.44,0,0,0,1.12,28.65c.48,5.06-1.79,5.18-5.49,5.13-10.23-.13-20.47.11-30.7-.12-4.27-.1-5.59,1.09-5.31,5.59.52,8.56.46,17.17.15,25.74-.19,5.16,1.54,6.68,6.74,6.62,22.44-.29,44.89-.15,67.33-.15q173.28,0,346.57,0c4.28,0,8.57.24,12.87.38l-.26-.17c-3.76,9.4-1.14,19.21-1.9,28.8-.33,4.18-.4,8.39-.59,12.59-7.71,2.73-15.7,1.13-23.54,1.38-6.25.2-9.11,2.84-8.79,9,.05,1,0,2,0,3-.31,16.38,5.42,20.71,21.53,16.63,3.56-.9,4.83-2.92,5.15-6.18.42-4.27-.07-8.59.49-12.83.47-3.61-.35-8.21,5.19-9,.15,8.91-.1,17.85.6,26.71.5,6.25-1.56,7.45-7.55,7.45-73,0-146,.28-219,.47-41.29.11-82.58.26-123.86.2-24.43,0-48.87-.75-73.29-.51-7.15.07-7.72-3-7.64-8.67.28-20.47,0-41,.35-61.42.11-6.1-1.64-8.16-7.83-7.79C493,1136.25,481.76,1136.18,470.56,1136.42Z"/><path class="cls-26" d="M631.1,941.29l.27-6.17c1.4-7.86.58-15.79.53-23.67,0-5,1.3-6.93,6.64-7,46.5-.87,93-1,139.49-.94,5.83,0,8.3,1.89,7.75,8.07a159.14,159.14,0,0,0-.1,18.79c.21,6.81-3.24,9.24-9.58,9.77-7.46.62-15.16-1.79-22.32,1.72-1.62,8.18.15,16.39-.38,24.56-.29,4.59,0,9.27-3.49,13a1.38,1.38,0,0,1,.09,1.44c-10.28-2.82-20.78-1-31.18-1.34-16.7-.48-33.41-.5-50.12-.71l.06.24c-5.56-6.56-3.29-14.48-3.6-21.87-.49-11.74-.67-11.92-12.44-12.4-7.4-.31-15.3,1.92-21.89-3.56Z"/><path class="cls-27" d="M865.27,1292c-10.87.09-21.74.39-32.61.19-5.57-.1-7.9,1.95-7.28,7.53a33.25,33.25,0,0,1,0,6.91c-.69,7.42,3.68,18.31-1.83,21.56-8.38,4.93-19.82,1.52-29.95,1.45-4.23,0-3.91-3.7-3.94-6.65,0-7.24.1-14.49-.08-21.74-.07-3.11,1.23-6.72-2.27-9-10.89,0-21.78-.15-32.65.15-4.83.13-7.32-.75-6.65-6.39.61-5.2.26-10.52.34-15.78,1.68-15.71,1.68-15.7,17.87-15.71,28.2,0,56.39,1.54,84.61.2,13.12-.62,13-.11,13.2,12.77.11,7.54-.9,15.12.72,22.62C864.92,1290.7,865.09,1291.34,865.27,1292Z"/><path class="cls-27" d="M591.69,1262.28c1.7-4.49,4.68-6.13,9.72-6,18.76.35,37.54.53,56.29,0,7.79-.21,9.24,2.82,9.22,9.82-.09,26.31.13,26.47-26.36,26-15.79-.27-31.64,1.37-47.39-1.08-.44-.07-1,.75-1.53,1.16Z"/><path class="cls-28" d="M591.69,1038.23a8.63,8.63,0,0,0,1.34-2.56c2.05-15.24,2-15.25,18.33-15.33,17.76-.09,17.76-.09,17.81,17.43.06,16.45.06,16.45-16.77,16.45-6.91,0-13.81,0-20.71.08Z"/><path class="cls-29" d="M942.36,1179.14c-4.27,7-1.77,14.77-1.76,22.11,0,7-1.48,9.83-9.27,9.85-24.94.06-24.5.39-25-24.7-.19-9.3,2.76-12.37,11.66-11.27,8.09,1,16.49-1.63,24.39,2C942.36,1177.81,942.36,1178.47,942.36,1179.14Z"/><path class="cls-30" d="M983.88,1214.52c-8.27,4.94-17.31,2-25.91,2s-12.22,1.62-11.94,11.34c.64,22.76.11,22.75,23,22.74,39.2,0,78.4-.23,117.6.15,8.19.08,11.21-2.27,10.55-10.56-.65-8.13-.14-16.36.41-24.57,3.23,11.47-1.19,23.54,3,34.9-.83,4.33-4.25,2.14-6.33,2.15-47.49.23-95,.16-142.49.51-6.07,0-8-1.46-7.53-7.59.66-9.82-3.3-22.7,1.57-28.73,5.09-6.3,18.5-1.34,28.24-2C977.29,1214.65,980.59,1214.63,983.88,1214.52Z"/><path class="cls-31" d="M357.71,1216.89c3.58,8.22,1.33,16.86,1.48,25.27.11,6.42,2.16,8.56,8.61,8.53q65.77-.33,131.55,0c6.09,0,8.73-1.35,8.9-8.16.63-25.73.88-25.62-24.79-25.83-4.34,0-9.33,2-13-2.37,11.2.18,22.41.47,33.62.46,3.72,0,6.17.11,6,5-.34,11.16-.11,22.34-.11,33.25-48.38,0-95.89-.22-143.39.21-7.95.07-9.93-2.27-9.35-9.69C358,1234.74,357.61,1225.8,357.71,1216.89Z"/><path class="cls-2" d="M864.74,1290.07c-3.66-7.16-1.69-14.84-1.46-22.18.27-8.6-1.81-12-11.35-11.75-27.91.68-55.84.22-83.77.21-15.85,0-15.85,0-19.82,13.84-.77-16.79-.77-16.84,16.11-16.85,31.2,0,62.4.25,93.59-.17,6.27-.09,7.55,1.53,7.19,7.37C864.62,1270.35,864.86,1280.22,864.74,1290.07Z"/><path class="cls-32" d="M942.3,782.73c.1,10.88-.06,21.77.4,32.64.24,5.56-1.54,7.31-7.15,7.23-20.44-.31-40.91.36-61.33-.4-8.38-.32-9.83,2.64-9.4,9.92.5,8.53-.07,17.12-.17,25.69-3.35-8.27-1.72-16.95-1.41-25.36s-2.82-10.5-10.83-10.4c-31,.38-62-.12-93,.23-8.45.1-11.82-2.33-11.56-11.23.56-18.81-.24-37.67.37-56.48.26-8.2-2.73-10.42-10.27-9.84-6.56.52-13.22-.2-19.8.2-6.21.38-7.93-2.25-7.9-8.12q.28-49.54,0-99.1c0-6.12,2.11-8.2,8.07-7.91,7.58.36,15.2-.11,22.79.13,5.09.16,7-1.82,7-6.95q-.25-32.7,0-65.41c0-5.07-1.84-7.14-7-7q-12.87.36-25.76,0c-5.13-.15-7.12,1.86-7,7,.24,7.92-.12,15.86.1,23.78.15,5.13-1.93,7.11-7,7-7.93-.23-15.86.13-23.78-.11-5.11-.15-7.21,1.79-6.92,7,.39,7.24.13,14.53.61,21.76.49,7.47-1,12-10.11,11.13-7.86-.75-15.84-.15-23.77-.11-3.11,0-6.38.13-5.71,4.62,2.89,19.33-.65,38.57-.59,57.86.09,27.09-.26,54.18,0,81.27.07,6.76-1.81,9.6-8.93,9.11a206.08,206.08,0,0,0-22.78,0c-5.73.24-9-1.42-8.14-7.75a14.53,14.53,0,0,0,0-2c-.28-26.42-.28-26.42-27.21-26.27-14.36.07-14.35.07-14.35-14.36,0-18.83-.24-37.67.12-56.49.12-6.58-2.21-9.14-8.6-8.34a29.06,29.06,0,0,1-4,0c-25.58-.07-25.51-.07-25.42-26.15.1-26.43.27-52.86-.08-79.28-.1-7.15,1.62-10.37,9.34-9.74,7.22.6,14.55-.29,21.78.25s8.94-2.46,8.82-9.16c-.35-21.13-.07-42.28-.2-63.42,0-5.79.29-8.79,8.17-7.71,8.95,1.22,18.32-.55,27.5-1.15,4.21-.28,4.07-3.58,4.08-6.59,0-7.93.25-15.87-.06-23.78-.22-5.66,2.13-7.55,7.59-7.42,7.9.19,15.84-.76,23.7-.21,6.94.48,8.73-2.48,8.56-8.61-.23-7.92.14-15.86-.1-23.78-.16-5.14,1.89-7.09,7-6.95,8.25.22,16.53-.3,24.77.07,6.16.28,8.2-2.18,7.88-8.11-.37-6.58.31-13.23-.15-19.81-.5-7.09,1.56-10.42,9.34-9.77,7.54.64,15.37-.86,22.73.48,7.89,1.44,7.92-2.17,7.86-7.85-.18-20.48-.12-41-.09-61.44,0-10.06,3-12.76,12.86-11.81C748,276,747.93,276,748,251.56q.07-67.89.21-135.76c10.53.17,21.08.65,31.6.37,5-.14,6.16,1.49,6,6.11-.3,9.22.15,18.46-.19,27.68-.17,4.74,1.36,6.27,6.11,6.13,11.19-.33,22.39-.16,33.59-.19,1.39,23,.47,46,0,68.94-.14,6.64,1.19,9,8.31,8.87,10.47-.22,21,1,31.46,1.54q.38,110.34.71,220.66c0,4.93-.37,9.87-.56,14.8-.75,5.2-2.9,1.79-3.7.33-2.65-4.84-1.93-10.28-2-15.52-.16-21.69-.12-21.48-21.26-20.47-6.71.32-9.43,2.85-9.41,9.52,0,16.83.08,33.66,0,50.49-.11,17.32-2,19.17-19.4,19.37-21.82.25-20.15-3.3-20.24,20,0,12.21-.08,24.42,0,36.63.12,14,1,14.82,14.64,14,2-.12,4-.22,5.94-.28,15.92-.46,15.92-.46,16-16.85.1-21.34.1-21.34,21.14-20.92,2.3.05,4.62-.12,6.92,0,6.6.35,9.7-2.44,9.6-9.26s-.14-13.86.22-20.79c.37-7.11,4-10.85,11.11-11.3,5.26-.32,10.54-.63,15.8-.86,7.73-.34,11.51-3.46,10.63-11.62a98.47,98.47,0,0,1-.13-12.86c.08-3.23-.36-6.78,3.42-8.57l2.29-1.06c2.49-12.82-.82-25.9,1.72-38.73,9.47-.12,19-.58,28.41-.24,5.73.21,8-.87,7.59-7.39-.73-10.74-.22-21.56-.23-32.35,10.19,0,20.41.38,30.57-.19,6.38-.36,7.5,2,7.53,7.82.16,33.54.94,67.08,1,100.62,0,6.65,1.33,9.31,8.52,8.84,9.83-.63,19.73-.12,29.59-.09.22,7.55.64,15.1.63,22.65,0,54.66-.21,109.33-.12,164,0,5.19-.38,9-6.62,9.22-2.26-.66-4.52-.91-6.73.21a77.94,77.94,0,0,0-25.09,0h-.85l-.77.34c-8.05,2.88-16.39,1.15-24.58,1.36-6.62.17-9.69,2.64-9.52,9.43.15,5.6.1,11.23-.24,16.84-.44,7.14-4.22,10.72-11.3,11.19-5.61.37-11.23.39-16.83.29-6.84-.13-9.46,3.08-9.31,9.65.14,5.6.24,11.23-.17,16.83-.71,9.57-3.28,12.2-12.72,13-6.25.49-12.54.16-18.81.31-5.36.12-7.36,2.69-7.9,7.92-2.54,24.53-2.65,24.52,21.69,24.51,11.23,0,22.48-.3,33.69.09,8.25.28,11.24-3.21,10.88-11.14-.26-5.91-.59-11.92.74-17.77C938.13,785.43,938.55,782.42,942.3,782.73Z"/><path class="cls-6" d="M749.91,979.35c.33-13.28-1.7-26.58.58-39.83a3.24,3.24,0,0,1,3-.49c10.42,0,20.84.9,31.24-.59a2.82,2.82,0,0,1,1.84,2.72c0,9.85-.46,19.7.18,29.49.47,7.34-1.77,10.43-9.25,9.24-2.55-.41-5.24.33-7.77-.67Z"/><path class="cls-33" d="M825.53,1369c.41-12.39,1-24.78-.33-37.15,10.54,0,21.08.25,31.59-.22,6.63-.29,8.76,2.28,8.33,8.61a150.38,150.38,0,0,0,0,18.75c.35,6.15-1.52,8.65-8.24,8.77-27.16.49-27.16.71-27.64-26.75a6.07,6.07,0,0,0-1.78-4.8v32.93l-1,.1Z"/><path class="cls-26" d="M769.78,979.22c16.17-.64,16.21-.64,16.1-17.48,0-7.25-.26-14.5-.41-21.74-.19-8.92-3.63-18.06,1.81-26.59q.21,12.81.41,25.63.06,13.86.1,27.71C787.82,982.37,785.72,983.82,769.78,979.22Z"/><path class="cls-34" d="M277.93,1371.58l-.09-39.64c10.57-.07,21.16.16,31.71-.33,6.65-.3,8.65,2.35,8.41,8.66-.37,10.23-.11,20.48-.12,30.72Z"/><path class="cls-35" d="M201.06,1290.26l0-37.83c10.85,0,21.7.25,32.54.09,5.1-.08,7.06,2,6.9,7-.24,7.56-.32,15.14,0,22.68.29,5.93-1.8,8.25-7.89,8C222.11,1289.92,211.58,1290.23,201.06,1290.26Z"/><path class="cls-10" d="M221.1,980.67c19.31.15,19.31.15,19.31,19.44s0,19.28-19.87,18.89-19.83-.4-19.8-18.25C200.77,980.52,200.77,980.52,221.1,980.67Z"/><path class="cls-7" d="M630.83,941.15c11.17,0,22.35,0,33.52-.19,4.17-.08,4.69,1.85,4.61,5.42-.26,10.86-.16,21.73-.2,32.6-9.87,0-19.75-.48-29.58,0-6.55.36-9.43-.9-8.83-8.31C631.16,960.91,630.73,951,630.83,941.15Z"/><path class="cls-29" d="M240.69,1294.24c-.18-.65-.36-1.31-.53-2,10.2-.09,20.41,0,30.61-.35,5.52-.2,7.72,1.85,7.52,7.4-.29,7.89-.24,15.8-.09,23.7.09,5-1.7,7.52-6.93,6.86a5.46,5.46,0,0,0-1,0c-27.57.9-27.53.9-28-26.21C242.25,1300.5,243.29,1297,240.69,1294.24Z"/><path class="cls-2" d="M787.28,913.41c-3.35,8.68-1,17.74-1.81,26.59a1.66,1.66,0,0,1-1.15-.48,161.59,161.59,0,0,1-32.91,0l-.45.24-.47-.19c6-4.81,13-1.82,19.48-2.08,13.72-.54,13.74-.18,13.79-14.12.07-17.84.07-17.84-17.5-17.84-40.91,0-81.83.17-122.74-.21-8.07-.07-11.2,2-10.74,10.47.35,6.39,1.83,13.14-1.41,19.38-.11-3.59-.29-7.17-.32-10.76-.15-21.92-.14-21.93,21.46-21.57,6.47.11,12.93.27,19.4.41,31.89-1.52,63.8-.35,95.71-.57,6.48,0,13.11-1.36,19.5,1C787.17,906.88,787.23,910.14,787.28,913.41Z"/><path class="cls-26" d="M787.12,903.61l-115.21-.41c38-1.55,76-1.26,114-.94C786.32,902.26,786.72,903.14,787.12,903.61Z"/><path class="cls-36" d="M904.49,471.77c.07,9.83,0,19.66.27,29.48.1,4.26-.36,6.68-5.84,6.11-4.46-.46-9.09,1.21-13.66,1.39-18.31.73-18.31.65-18.31,19.47,0,22.41,0,22.41-22.24,22.19-15.63-.15-15.63-.15-15.56,15.38.11,22,.11,22-22,22.6a61.13,61.13,0,0,0-6.87.64c-12.14,1.73-14.63-.37-14.62-12.39,0-19.47.13-38.94,0-58.41-.05-5.71,0-8.51,7.86-7.8,31.86,2.89,31.89,2.47,31.91-29.07,0-13.86.24-27.73,0-41.58-.12-5.77,1.47-8,7.71-8.26,30-1.11,29.93-1.29,30,28.57,0,3.57.28,7.14.48,10.71,0,.14.52.38.79.35a2.47,2.47,0,0,0,.87-.44Z"/><path class="cls-37" d="M908.5,432c-.83,12.9,2.32,26-1.72,38.73C907.55,457.81,904.45,444.74,908.5,432Z"/><ellipse class="cls-38" cx="1026.93" cy="606.79" rx="0.79" ry="130.26"/><path class="cls-39" d="M942.3,782.73c-4.1,9.14-1.6,18.76-1.68,28.11-.06,7.27-2,9.83-9.55,9.63-19.14-.5-38.3-.33-57.45-.13-5.13.06-7.75-.48-7-6.84a113.78,113.78,0,0,0,.08-22.75c-.77-8.58,2.78-10.94,10.76-10.32,7.55.58,15.18,0,22.77.15,4.63.1,6.54-1.83,6.45-6.46-.17-8.59.18-17.18-.12-25.75-.2-5.58,2-7.69,7.49-7.47,7.59.3,15.2-.16,22.78.13,5.46.21,7.82-1.71,7.58-7.39-.33-7.58.15-15.19-.16-22.77-.22-5.5,1.78-8.08,7.4-7.53,10.09,1,20.45-2,30.33,2.06a4,4,0,0,1-.21,1.88c-1,23-1.89,46.07.47,69.09,1.57,5.29-1.43,6-5.7,6-10.74,0-21.48.15-32.22.24Z"/><path class="cls-32" d="M982.21,776.37a4.51,4.51,0,0,1-2.08-4.2q0-30.69.09-61.39c0-1.17,1-2.33,1.52-3.5Q982,741.83,982.21,776.37Z"/><path class="cls-9" d="M983.57,705.07c8.36-2.32,16.71-1.15,25.08,0Z"/><path class="cls-40" d="M860.74,230.78H829.8l0-.78h31C860.73,230.26,860.74,230.52,860.74,230.78Z"/><path class="cls-41" d="M513.93,1174.09c0-9.58.27-19.17-.1-28.74-.24-6.11,2.11-8.59,8.06-7.88a6.54,6.54,0,0,0,1,0c29.06-.64,29-.64,29,28.41,0,12.56-.23,25.11.07,37.66.14,5.62-2,7.68-7.46,7.48-7.92-.29-15.86-.33-23.78-.06-5.36.19-6.88-2.24-6.79-7.13.19-9.91.06-19.83.06-29.74Z"/><path class="cls-36" d="M984.05,683.12c0-17.5,0-17.5,17.83-17.45s17.82.05,17.83,17.66c0,18,0,18-18.47,18C984.09,701.3,984.09,701.3,984.05,683.12Z"/><path class="cls-26" d="M751.41,939.47a205.46,205.46,0,0,1,32.91,0C773.35,941.85,762.38,941.06,751.41,939.47Z"/></svg>